<?xml version="1.0" encoding="utf-8"?>
<!-- Generator: Adobe Illustrator 19.0.0, SVG Export Plug-In . SVG Version: 6.00 Build 0)  -->
<svg version="1.1" xmlns="http://www.w3.org/2000/svg" xmlns:xlink="http://www.w3.org/1999/xlink" x="0px" y="0px"
	 viewBox="0 0 841.9 595.3" style="enable-background:new 0 0 841.9 595.3;" xml:space="preserve">
<style type="text/css">
	.st0{fill:#DDD8BA;}
	.st1{fill:#99C4D1;}
	.st2{fill:#52BBD1;}
	.st3{fill:#41A3B6;}
	.st4{fill:#272530;}
	.st5{fill:none;}
	.st6{font-family:'Helvetica';}
	.st7{font-size:36px;}
	.st8{fill:#9AC4D1;}
	.st9{font-size:30px;}
	.st10{fill:#FBB040;stroke:#52BBD1;stroke-width:3;stroke-miterlimit:10;}
	.st11{font-size:18px;}
	.st12{fill:#FFFFFF;stroke:#CDCCCC;stroke-width:0.75;}
	.st13{fill:#CDCCCC;}
	.st14{font-size:11px;}
	.st15{font-size:9px;}
	.st16{fill:#272530;stroke:#52BBD1;stroke-width:6;stroke-miterlimit:10;}
	.st17{font-family:'CourierNewPSMT';}
	.st18{font-size:7px;}
	.st19{fill:url(#XMLID_14_);}
	.st20{fill:#35B44A;}
	.st21{fill:#EDF5E4;}
	.st22{font-size:24px;}
</style>
<g id="Layer_1">
	<circle id="XMLID_1_" class="st0" cx="48" cy="-65" r="26"/>
	<circle id="XMLID_3_" class="st1" cx="98" cy="-65" r="26"/>
	<circle id="XMLID_4_" class="st2" cx="148" cy="-65" r="26"/>
	<circle id="XMLID_5_" class="st3" cx="198" cy="-65" r="26"/>
	<circle id="XMLID_6_" class="st4" cx="248" cy="-65" r="26"/>
	<rect id="XMLID_2_" class="st4" width="841.9" height="595.3"/>
	<rect id="XMLID_8_" x="122" y="48" class="st5" width="439.2" height="29.4"/>
	<text id="XMLID_7_" transform="matrix(1 0 0 1 122 73.8341)"><tspan x="0" y="0" class="st0 st6 st7">Internet Access</tspan><tspan x="248.1" y="0" class="st8 st6 st9"> over Time</tspan></text>
	<line id="XMLID_11_" class="st10" x1="0" y1="143.1" x2="841.9" y2="143.1"/>
	<path id="XMLID_13_" class="st2" d="M216.5,193.5"/>
	<g id="XMLID_19_">
		<rect id="XMLID_144_" x="10.8" y="171.1" class="st5" width="40.5" height="18.4"/>
		<text id="XMLID_143_" transform="matrix(1 0 0 1 10.8406 183.9863)" class="st0 st6 st11">1980</text>
	</g>
	<g id="XMLID_22_">
		<rect id="XMLID_142_" x="790.8" y="171.1" class="st5" width="40.5" height="18.4"/>
		<text id="XMLID_141_" transform="matrix(1 0 0 1 790.8414 183.9863)" class="st0 st6 st11">2015</text>
	</g>
	<g id="XMLID_119_">
		<path id="XMLID_118_" class="st12" d="M105.2,57.1c0,20.9-17,37.9-37.9,37.9s-37.9-17-37.9-37.9l0,0c0-20.9,17-37.9,37.9-37.9
			S105.2,36.2,105.2,57.1z"/>
		<path id="XMLID_122_" class="st13" d="M64.4,92.8c-0.2,0-0.4-0.1-0.4-0.2c0-0.1,0-0.2,0-0.3c0-0.2-0.9-1-1.5-1.3
			c-0.3-0.2-0.5-0.4-0.6-0.7c-0.1-0.2-0.2-0.4-0.3-0.4c-0.1,0-0.1-0.1-0.1-0.2c0-0.1-0.1-0.3-0.3-0.4c-0.1-0.1-0.2-0.2-0.2-0.3
			c0.1-0.1,0-0.1-0.1-0.1c-0.1,0.1-0.2,0-0.2-0.2c0-0.2-0.2-0.5-0.6-0.9c-0.6-0.6-0.9-1.4-0.6-1.7c0.1-0.1,0.2-0.3,0.2-0.5
			c0-0.2,0.3-0.5,0.5-0.6c0.4-0.3,0.5-0.5,0.1-1c-0.1-0.2-0.2-0.5-0.2-0.6c0-0.1-0.2-0.7-0.4-1.3c-0.4-0.8-0.7-1.2-1.2-1.7
			c-0.6-0.6-1.3-1.5-1.3-1.8c0-0.1,0.1-0.1,0.2-0.1c0.1,0,0.2-0.1,0.2-0.4c0-0.2,0.1-0.5,0.2-0.7c0.3-0.4,0.1-1.3-0.2-1
			c-0.1,0.1-0.2,0.2-0.3,0.2c-0.2,0-0.2-0.4,0-0.5c0.4-0.1-0.1-0.3-0.9-0.3c-0.4,0-0.8,0-0.9-0.1c-0.1-0.1-0.3-0.4-0.5-0.8
			c-0.3-0.6-0.4-0.7-0.8-0.7c-0.6-0.1-1.4-0.1-2.6,0c-0.9,0.1-1,0.1-1.6-0.2c-0.5-0.3-0.9-0.4-1.7-0.4c-1.2-0.1-1.3-0.1-2.4-1.6
			c-0.4-0.5-0.9-1.1-1.2-1.4c-0.4-0.4-0.5-0.6-0.4-0.6c0.2-0.2,0.1-0.9-0.3-1.3c-0.2-0.2-0.4-0.5-0.5-0.6c-0.1-0.1-0.3-0.4-0.4-0.6
			c-0.2-0.3-0.2-0.5-0.2-0.8c0.1-0.2,0.1-0.7,0.1-1c0-0.4,0.1-0.7,0.2-0.8c0.3-0.3,0.5-0.9,0.4-0.9c-0.1,0-0.1-0.2-0.1-0.4
			c0-0.2,0-0.4,0.1-0.4s0.1,0.1,0.1,0.2c0,0.5,0.2,0.3,0.3-0.2c0-0.4,0-0.5-0.1-0.5c-0.2,0.1-0.2,0.1,0.1-0.9c0.2-0.7,0.3-1,0.7-1.5
			c0.3-0.3,0.6-0.7,0.8-0.7c0.1,0,0.2-0.2,0.2-0.3c0-0.3,0.4-0.8,0.7-0.8c0.2,0,0.4-0.2,0.5-0.4c0.1-0.3,0.2-0.3,0.5-0.2
			c0.2,0,0.3,0,0.3-0.1c0-0.1,0.1-0.1,0.2-0.1c0.1,0,0.2,0,0.3-0.1c0.1,0,0.3-0.1,0.5-0.2c0.3-0.1,0.3-0.2,0.4-0.6
			c0.1-0.7,0.9-1.4,1.6-1.6c0.7-0.2,1.2-0.8,1.2-1.4c0-0.3-0.1-0.4-0.3-0.4c-0.1,0-0.3-0.1-0.3-0.1c0-0.1-0.2-0.1-0.3-0.1
			c-0.3,0-0.3-0.1-0.1-0.4C51,52.5,51,52.3,51,52c-0.1-0.3,0-0.5,0.3-0.9c0.4-0.5,0.6-1.2,0.6-1.7c0-0.3,0.1-0.4,0.5-0.5
			c0.4-0.1,0.6-0.1,0.7,0.1c0.1,0.1,0.3,0.2,0.4,0.2c0.1,0,0.2,0.1,0.3,0.1c0.1,0.1,0.4,0.2,0.8,0.3c0.6,0.2,0.6,0.2,0.8-0.1
			c0.1-0.1,0.3-0.5,0.3-0.7c0.1-0.5,0-1.3-0.2-1.3c-0.1,0-0.1-0.1-0.1-0.2c0-0.1-0.1-0.2-0.2-0.2c-0.1,0-0.2-0.2-0.2-0.5
			c0-0.4,0-0.4,0.5-0.4c0.3,0,0.5,0.1,0.6,0.2c0,0.1,0,0,0-0.1c-0.1-0.2,0-0.3,0.1-0.2c0.1,0,0.2,0,0.2-0.1c0-0.1,0.1-0.1,0.3,0.1
			c0.2,0.2,0.3,0.2,0.7,0l0.5-0.2l-0.4-0.1c-0.2-0.1-0.9-0.1-1.4-0.2c-0.5,0-1-0.1-1.2-0.1c-0.3,0-0.3-0.2,0.1-0.3
			c0.2,0,0.5-0.2,0.6-0.3c0.2-0.2,0.2-0.2,0.1-0.3c-0.2-0.1-0.1-0.5,0.2-0.5c0.2,0,0.2-0.1,0.2-0.3c0-0.3,0-0.3,0.3-0.3
			c0.3,0,0.3,0,0.3-0.3c0-0.2,0-0.3-0.1-0.1c0,0.1-0.1,0.2-0.3,0.2c-0.1,0-0.2-0.1-0.1-0.2c0.1-0.2,0-0.2-0.2,0
			c-0.1,0.1-0.2,0.3-0.2,0.4c0,0.1-0.1,0.4-0.2,0.5c-0.3,0.2-1.3,0.4-1.7,0.3c-0.4-0.1-0.3-0.7,0.1-0.8c0.2-0.1,0.3-0.2,0.3-0.3
			c-0.1-0.3,0.3-0.8,0.5-0.7c0.1,0,0.3,0,0.4-0.1c0.1-0.1,0.4-0.2,0.5-0.1c0.2,0,0.4,0,0.4-0.2c0.1-0.1,0.1-0.2,0-0.2
			c-0.2,0-0.1-0.3,0.1-0.3c0.2,0,0.2,0,0-0.1c-0.3-0.1-0.3-0.2,0.1-0.6c0.3-0.3,0.7-0.4,0.7-0.2c0,0.1,0.1,0.1,0.2,0
			c0.1-0.1,0.2-0.1,0.3-0.1c0.1,0,0.3,0,0.4-0.1c0.2-0.2,0.3-0.2,0.4-0.1c0.1,0.1,0.1,0.2-0.3,0.5c-0.4,0.3-0.4,0.4-0.2,0.4
			c0.3,0,0.3,0.4,0,0.7C58,42,58,42.5,58.4,43.6c0.3,0.8,0.3,1.6,0.1,1.7c-0.1,0-0.1,0.1-0.1,0.1c0.1,0.2,0.8-0.3,1.2-0.7
			c0.3-0.4,0.4-0.4,1-0.4c0.7,0,0.7,0,0.8-1c0.1-0.8,0.2-0.9,0.8-1.1c0.4-0.1,0.5-0.1,0.6,0c0.1,0.1,0.1,0,0.1-0.3
			c0-0.5-0.2-0.5-0.6-0.2c-0.1,0.1-0.4,0.2-0.6,0.2c-0.6,0-0.7-0.4-0.6-1.3c0.1-1,0.3-1.4,0.9-1.7c0.3-0.1,0.5-0.3,0.5-0.3
			c0-0.1,0.2-0.2,0.4-0.3c0.3-0.1,0.6-0.4,0.9-0.8c0.2-0.4,0.6-0.7,0.8-0.8c0.2-0.1,0.3-0.2,0.3-0.2c0,0-0.2,0-0.3,0.1
			s-0.3,0.1-0.3,0.1c-0.1-0.1,0.7-0.8,1.3-1.1c0.3-0.1,0.5-0.3,0.5-0.4c0-0.1,0.2-0.1,0.5-0.1c0.2,0,0.4,0,0.4-0.1
			c0-0.1,0.8-0.4,1.3-0.4c0.3,0,0.6,0.1,0.8,0.3c0.2,0.2,0.4,0.3,0.5,0.3c0.1,0,0.2,0.1,0.2,0.1s0.1,0.1,0.3,0.1
			c0.4,0,1.9,0.7,2,0.9c0.1,0.2,0.3,0.3,0.5,0.3c0.3,0,0.3,0,0.1-0.2c-0.1-0.1-0.2-0.3-0.2-0.4c0-0.1-0.1-0.2-0.1-0.2
			c-0.1,0-0.1-0.1-0.1-0.2c0-0.2,0.1-0.2,0.4-0.1c0.2,0,0.5,0.1,0.6,0.2c0.2,0.1,0.3,0,0.7-0.4c0.3-0.3,0.6-0.5,0.9-0.6
			c0.8-0.2,0.3-0.7-0.5-0.6c-0.3,0-0.7,0-0.9-0.1c-0.3-0.2-0.4-0.3-0.5-0.8c0-0.3-0.1-0.7-0.1-0.9c-0.2-0.7-0.1-1,0.3-1.3
			c0.2-0.1,0.3-0.3,0.3-0.4c0-0.1,0.1-0.2,0.2-0.1c0.2,0,0.2,0.1,0.2,0.5c0,0.2-0.1,0.9-0.1,1.4c0,0.8,0,1,0.3,1.2
			c0.4,0.3,1.5,0.5,2.1,0.4l0.5-0.1L76,33.2c-0.2-0.2-0.3-0.4-0.3-0.6c0-0.1-0.1-0.3-0.2-0.5c-0.1-0.1-0.2-0.4-0.3-0.6
			c-0.1-0.4-0.1-0.4,0.2-0.3c0.3,0.1,0.3,0,0.4-0.3l0-0.3l0.3,0.3c0.2,0.2,0.3,0.3,0.3,0.1c0-0.1-0.1-0.2-0.1-0.2
			c-0.1,0-0.1-0.1-0.1-0.3c0-0.2,0-0.3,0-0.3c-0.1,0-0.1-0.2-0.2-0.5c-0.2-1.1-0.2-1.2-0.5-1.3c-0.3-0.1-0.3-0.5,0-0.5
			c0.3,0,0.3,0,0-0.1c-0.1-0.1-0.3-0.2-0.3-0.3c-0.1-0.1-0.1-0.1-0.1,0c0,0.1-0.4,0.2-0.8,0.3c-0.9,0.2-1.1,0.1-1.5-0.3
			c-0.2-0.2-0.1-0.2,0.3-0.1c0.3,0.1,0.5,0,0.7-0.1c0.2-0.1,0.4-0.2,0.6-0.1c0.2,0,0.3,0,0.3-0.1c0-0.1,0.2-0.1,0.6-0.1
			c0.4,0.1,0.6,0,0.6-0.1c0.1-0.3,0.5-0.3,1.3,0c0.6,0.2,0.6,0.2,0.6-0.1c0-0.1,0.1-0.3,0.2-0.4c0.2-0.2,0.2-0.2-0.1-0.2
			c-0.4,0-0.5-0.1-0.4-0.5c0.1-0.2,0.2-0.3,0.6-0.3c0.3,0,0.5,0,0.4-0.1c-0.1,0-0.2-0.1-0.2-0.2c0-0.5-1.3-0.8-1.7-0.5
			c-0.4,0.3-1.3,0.1-1.3-0.3c0-0.1-0.1-0.3-0.1-0.3c-0.2-0.1-0.1-0.4,0.1-0.4c0.2,0,0.3,0.1,0.3,0.3c0,0.1,0.1,0.3,0.2,0.3
			c0.1,0,0.2,0.1,0.4,0.2c0.2,0.2,0.2,0.2,0.3,0c0-0.1,0.2-0.2,0.3-0.2c0.2,0,0.2-0.2,0-0.3c-0.1,0-0.1-0.2-0.1-0.3
			c0-0.2-0.1-0.3-0.4-0.5c-0.4-0.3-0.6-0.5-0.3-0.5c0.3,0-0.9-0.6-1.4-0.7c-0.2-0.1-1.1-0.4-1.8-0.8c-0.8-0.4-1.5-0.7-1.7-0.8
			c-0.3-0.1-0.4-0.3-0.1-0.3c0.1,0,0.2-0.1,0.2-0.1c0-0.1,0.1-0.1,0.2-0.1c0.1,0,0.2,0.1,0.2,0.1c0,0.1,0.2,0.1,0.3,0.1
			c0.2,0,0.5,0.1,0.7,0.2c0.5,0.3,1.7,0.4,1.7,0.2c0-0.1,0.1-0.1,0.2-0.1c0.1,0,0.9,0.2,1.7,0.4c0.8,0.2,1.6,0.4,1.7,0.4
			c0.6,0.3,1.3,0.5,1.5,0.5c0.1,0,0.4,0.1,0.6,0.2c0.3,0.2,0.4,0.2,0.4,0c0-0.1,0.1-0.2,0.1-0.2c0.1,0,0.1,0.1,0.1,0.2
			c0,0.1,0.1,0.2,0.2,0.2c0.1,0,0.5,0.1,0.9,0.3c0.4,0.1,0.9,0.3,1.1,0.4c0.5,0.1,1.8,0.8,1.8,0.9c0,0.1-1.4-0.2-2.6-0.6
			c-0.1,0,0,0,0.2,0.2c0.3,0.2,0.5,0.4,0.5,0.5c0,0.1,0.1,0.2,0.1,0.2c0.1,0,0.4,0.2,0.7,0.5c0.3,0.3,1.1,0.8,1.9,1.3
			c0.7,0.4,1.5,1,1.7,1.2c0.3,0.2,0.4,0.3,0.5,0.2c0.1-0.2,0-0.4-0.3-0.3c-0.2,0.1-0.2,0-0.2-0.4c0-0.1-0.1-0.2-0.2-0.3
			c-0.4-0.3,0-0.3,0.8,0c0.9,0.3,1.1,0.5,0.9,0.6c-0.1,0,0,0.1,0.1,0.2c0.1,0,0.3,0,0.3,0c0.1,0,0.2,0,0.3,0.1
			c0.1,0.1,0.4,0.2,0.6,0.2c0.3,0,0.4,0.1,0.4,0.2c0,0.1,0.1,0.2,0.2,0.2c0.3,0,1.6,1,1.6,1.3c0,0.3-0.2,0.2-0.5-0.1
			c-0.1-0.1-0.4-0.3-0.5-0.4c-0.3-0.1,0.4,0.5,1.5,1.4c0.5,0.4,0.9,0.9,1.2,1.3c0.4,0.7,1.9,2.3,2.7,2.9l0.4,0.3l-0.5-0.6
			c-0.5-0.7-0.6-0.8-0.4-0.8c0.2,0,2.3,2.9,2.2,3c0,0-0.2,0-0.3-0.1c-0.3-0.2-0.2-0.1,0.1,0.3c0.2,0.3,0.3,0.5,0.2,0.5
			c0,0-0.4-0.3-0.7-0.7c-0.4-0.4-0.7-0.7-0.8-0.7c-0.1,0-0.2-0.1-0.4-0.2c-0.2-0.2-0.2-0.2,0,0.2c0.1,0.3,0.2,0.4,0.1,0.4
			c-0.1,0-0.1,0.1-0.1,0.2c0,0.1,0,0.2-0.1,0.1c-0.3-0.2,0,0.2,0.4,0.4l0.4,0.3l0-0.4c-0.1-0.6,0.2-0.4,0.6,0.4c0.5,1,0.6,1.2,0.8,1
			c0.1-0.1,0.3,0.1,0.7,0.5c0.7,0.8,1,1.2,1.6,2.3c0.2,0.4,0.5,0.9,0.7,1c0.4,0.5,0.6,0.7,0.8,1.1c0.2,0.6,0.2,0.9,0,0.8
			c-0.1-0.1-0.2,0-0.1,0.1c0.2,0.3,0.6,2.7,0.6,3.2c0,0.2,0.1,0.7,0.3,1c0.3,0.7,0.5,1.9,0.3,1.9c-0.1,0-0.2-0.2-0.3-0.5
			c-0.2-0.9-0.3-1-0.3-0.9c0,0,0,0.5,0.1,1c0.2,0.9,0.2,1,0.7,1.5c0.7,0.7,0.9,1.4,1,3.7c0.1,1.5,0.1,1.7-0.1,1.7
			c-0.1,0-0.2-0.1-0.2-0.2c0-0.1-0.1-0.2-0.2-0.2c-0.1,0-0.2-0.1-0.2-0.2c0-0.3-0.2-0.2-0.3,0.1c-0.1,0.3,0,1.6,0.2,1.6
			c0.1,0,0.1,0.2,0.2,0.5c0.1,0.4,0.2,0.6,0.4,0.7c0.6,0.3,0.9,2.6,0.6,4.5c-0.1,0.7-0.2,1.2-0.3,1.2c-0.1,0-0.1,0.1-0.1,0.2
			c0,0.1-0.1,0.2-0.1,0.2c-0.1,0-0.1-0.1-0.1-0.2c0-0.2-0.5-1.4-0.7-1.4c-0.2-0.1-0.1-0.3,0.1-0.5c0.2-0.1,0.2-0.2-0.1-0.4
			c-0.4-0.3-0.4-0.7,0-1.1c0.3-0.2,0.3-0.3,0.5-0.1c0.1,0.1,0.2,0.1,0.3,0.1c0.1-0.1-0.4-1.7-0.5-1.7c-0.1,0-0.2-0.4-0.4-1
			c-0.4-1.7-0.5-2.1-0.8-2.9l-0.3-0.8l-0.1,0.7c-0.1,0.7-0.4,1-0.5,0.6c0-0.1-0.1-0.4-0.2-0.7c-0.1-0.3-0.2-0.5-0.3-0.5
			c-0.1,0-0.3-0.2-0.6-0.4c-0.3-0.2-0.5-0.4-0.6-0.4c-0.1,0-0.9,1.8-0.9,2.1c0,0.2-0.1,0.6-0.2,0.9c-0.2,0.7-0.5,2.2-0.5,2.7
			c0,0.2-0.1,0.6-0.3,0.9c-0.3,0.6-0.3,0.7-0.1,1.1c0.1,0.2,0.2,0.7,0.2,1c0,0.7,0.2,1.4,0.4,1.5c0.3,0.2,0.7,0.9,0.7,1.3
			c0,0.5-0.2,1-0.5,1.1c-0.3,0.1-0.4-0.1-0.5-0.9c-0.1-0.7-0.3-0.6-0.5,0.1c-0.1,0.3-0.2,0.4-0.4,0.4c-0.2,0-0.4-0.1-0.7-0.7
			c-0.2-0.4-0.4-0.7-0.5-0.7c-0.1,0-0.3-0.3-0.4-0.7c-0.2-0.4-0.4-0.8-0.6-1c-0.2-0.2-0.3-0.4-0.4-0.6c0-0.2-0.1-0.3-0.2-0.3
			c-0.1,0-0.1-0.1-0.1-0.2s-0.1-0.4-0.2-0.6c-0.2-0.2-0.3-0.5-0.3-0.6c0-0.1-0.2-0.1-0.5-0.1c-0.3,0-0.6,0-1-0.2
			c-0.3-0.1-0.6-0.3-0.7-0.3s-0.2-0.1-0.2-0.2c0-0.1-0.2-0.2-0.4-0.3c-0.2,0-0.4-0.2-0.5-0.3c0-0.1-0.2-0.2-0.3-0.3
			c-0.2-0.1-0.3-0.1-0.6,0.1c-0.2,0.1-0.5,0.3-0.8,0.4c-0.2,0.1-0.6,0.3-0.7,0.4c-0.1,0.1-0.3,0.2-0.4,0.2c-0.1,0-0.4,0-0.7,0.1
			c-0.7,0.2-1.4,0.2-1.6,0c-0.2-0.2-0.2,0.2,0,0.6c0.2,0.4,0.5,0.5,0.9,0.4c0.2,0,0.5,0,0.8,0.2c0.4,0.3,0.5,0.3,0.4,0.7
			c0,0.3-0.1,0.7-0.2,0.9c0,0.3-0.1,0.5-0.2,0.5c-0.1,0-0.2,0.2-0.2,0.5c0,0.3-0.1,0.5-0.3,0.6c-0.1,0.1-0.3,0.3-0.3,0.4
			c0,0.2-0.1,0.3-0.3,0.3c-0.2,0-0.3,0.2-0.3,0.4c0,0.2-0.2,0.4-0.3,0.4c-0.4,0.1-1.2,0.8-1.2,1.1c0,0.2-0.3,0.4-0.7,0.7
			c-0.3,0.2-0.8,0.5-0.9,0.7c-0.4,0.3-1.6,1.1-1.7,1.1c-0.1,0-0.3,0.1-0.5,0.3c-0.2,0.2-0.5,0.3-0.8,0.3c-0.4,0-0.4,0-0.7-0.5
			c-0.4-0.7-0.4-1-0.5-1.4c0-0.3-0.2-0.5-0.7-0.9c-0.4-0.3-0.7-0.7-0.7-0.8c0-0.1-0.3-0.3-0.5-0.4c-0.3-0.1-0.4-0.3-0.6-0.7
			c-0.3-1-0.5-1.4-0.9-1.5c-0.2,0-0.4-0.2-0.5-0.4c-0.1-0.2-0.2-0.4-0.3-0.4c-0.1,0-0.1-0.1-0.2-0.3c-0.1-0.5-0.9-1.3-1.1-1.2
			c-0.1,0-0.2,0.2-0.2,0.3c0,0.2,0.7,1.4,1,1.8c0.1,0.2,0.2,0.3,0.2,0.4c-0.1,0.2,0.1,0.5,0.2,0.5c0.4,0,0.8,0.8,0.9,1.6
			c0.1,0.5,0.2,0.6,0.5,0.8c0.2,0.1,0.5,0.5,0.6,0.8c0.2,0.3,0.3,0.6,0.4,0.7c0.1,0.1,0.1,0.1,0,0.1c-0.1,0-0.1,0.1-0.1,0.2
			c0.1,0.2,0.3,0.2,0.3,0c0-0.1,0.1-0.2,0.3-0.2c0.2,0,0.3,0.1,0.3,0.3c0,0.2,0.2,0.4,0.5,0.6c0.8,0.5,1.2,1,1.3,1.4
			c0.1,0.6,0.5,0.7,1.2,0.4c0.3-0.1,0.7-0.3,0.8-0.4c0.1-0.1,0.3-0.2,0.4-0.2c0.8-0.3,1.6-0.7,1.7-0.9c0.1-0.1,0.2-0.2,0.3-0.2
			c0.2,0,0.2,0.1,0.2,0.4c0,0.2,0.1,0.4,0.2,0.5c0.1,0.1,0.1,0.2-0.1,0.3c-0.1,0.1-0.2,0.2-0.1,0.3c0,0.1-0.1,0.4-0.2,0.7
			c-0.2,0.3-0.4,0.9-0.6,1.4c-0.5,1.3-1.1,2.1-2.7,3.8c-2.3,2.3-3.5,3.7-3.1,3.7c0.2,0,0.1,0.5-0.1,0.5c-0.2,0-0.2,0.1,0,0.4
			c0.2,0.4,0.2,0.6,0,0.9c-0.2,0.3-0.1,0.8,0.2,0.9c0.2,0.1,0.2,0.2,0.2,1.2l0,1.1L77.7,86c-0.3,0.3-0.8,0.6-1.2,0.7
			c-0.4,0.1-0.7,0.3-0.8,0.4c-0.1,0.1-0.4,0.3-0.6,0.4c-0.5,0.3-0.7,0.5-0.5,0.8c0.2,0.2,0.1,1-0.2,1.2c-0.1,0.1-0.4,0.2-0.8,0.3
			c-0.5,0.2-0.7,0.3-0.9,0.7c-0.2,0.5-0.3,0.5-2,1.4c-1.1,0.6-1.8,0.7-3.9,0.8C65.7,92.9,64.6,92.9,64.4,92.8z M74.4,84.2
			c-0.1-0.3-0.3,0.5-0.2,0.8c0,0.2,0.1,0.2,0.2-0.2C74.4,84.6,74.4,84.3,74.4,84.2z M71.7,82.4c0-0.1-0.1-0.1-0.3-0.2
			c-0.2-0.1-0.2,0-0.1,0.1C71.5,82.6,71.7,82.6,71.7,82.4z M73.5,79.5c0.3,0,0.6-0.5,0.5-0.7c-0.1-0.2-0.2-0.2-0.4-0.1
			c-0.2,0-0.4,0.1-0.4,0.2c0,0.1-0.1,0.1-0.2,0.1c-0.1,0-0.2,0.2-0.2,0.4c0,0.3,0,0.4,0.2,0.4c0.1,0,0.3,0,0.3-0.1
			C73.3,79.6,73.4,79.5,73.5,79.5z M104.2,62.7C104.1,62.5,104.1,62.6,104.2,62.7c0,0.2,0,0.4,0,0.5c0,0.1,0,0.1,0.1-0.1
			C104.3,62.9,104.3,62.7,104.2,62.7z M104.1,62.3c0-0.2-0.1-0.2-0.2,0c0,0.1,0,0.2,0,0.2C104,62.4,104.1,62.4,104.1,62.3z
			 M84.3,61.3c0-0.2,0-0.2,0.1,0c0.2,0.3,0.3,0.1,0.8-0.9c0.2-0.4,0.4-0.8,0.5-0.8c0.1,0,0.1-0.1,0.1-0.2c0-0.1-0.1,0-0.3,0.2
			c-0.4,0.5-1.2,0.6-1.8,0.3c-0.2-0.1-0.5-0.2-0.6-0.1c-0.2,0.1-1.1-0.7-1.1-1c0-0.1-0.1-0.1-0.1-0.1s-0.1-0.1-0.1-0.1
			c0-0.1,0-0.1-0.1-0.1c-0.1,0-0.1,0.1-0.1,0.3c0,0.2,0,0.2-0.1,0.1c-0.1-0.2-0.1-0.2-0.1,0c0,0.1-0.1,0.2-0.2,0.3
			c-0.1,0-0.1,0.1,0.1,0.3c0.2,0.1,0.3,0.3,0.3,0.4c0,0.1,0.1,0.1,0.2,0.1c0.1,0,0.3,0.1,0.4,0.3c0.1,0.2,0.3,0.4,0.4,0.5
			c0.1,0.1,0.1,0.1,0.1,0.1c-0.1,0-0.1,0-0.1,0.1c0,0.1,0.1,0.2,0.2,0.2c0.1,0,0.2-0.1,0.1-0.3c0-0.3,0-0.3,0.2-0.2
			c0.3,0.1,0.3,0.1,0.5,0.5c0.1,0.3,0.1,0.4,0,0.5c-0.1,0-0.1,0.1,0,0.2C83.8,61.9,84.3,61.6,84.3,61.3z M65,59.4
			c0.1-0.5,0.1-0.6,0.5-0.8c0.6-0.3,1.1-0.3,1.4,0c0.1,0.1,0.5,0.3,0.7,0.3c0.3,0.1,0.5,0.1,0.6,0.2c0.1,0.1,0.3,0.1,0.6,0.2
			c0.2,0,0.7,0.1,1.1,0.2c0.5,0.1,0.7,0.1,1-0.1c0.4-0.3,1-0.3,1.8-0.2c0.6,0.1,0.7,0,1-1.3c0.3-1.3,0.2-2.1-0.2-2.1
			c-0.2,0-0.3,0-0.4,0.1c-0.2,0.3-0.8,0.4-1.1,0.2c-0.3-0.3-0.8-0.4-0.8-0.2c0,0.4-0.7,0.5-1,0.1c-0.2-0.2-0.2-0.2-0.3,0.1
			c-0.1,0.3-0.4,0.5-0.4,0.3c0-0.1-0.1-0.3-0.3-0.4c-0.1-0.1-0.2-0.3-0.2-0.5c0.1-0.1,0-0.2-0.2-0.1c-0.2,0.1-0.3,0-0.3-0.1
			c0-0.1,0.1-0.2,0.1-0.1c0.1,0,0.1,0,0.1-0.1c0-0.1-0.1-0.1-0.2-0.1c-0.2,0-0.2-0.1-0.2-0.6c0-0.3,0-0.6-0.1-0.7c0,0-0.1,0-0.1,0.1
			c0,0.1-0.1,0.1-0.2,0.1c-0.1,0-0.2-0.1-0.2-0.2c0-0.1,0.1-0.2,0.1-0.2c0.1,0,0.1-0.1,0.1-0.2c0-0.2,0-0.2-0.2,0.1
			c-0.1,0.2-0.4,0.3-0.6,0.4l-0.4,0.1l0.3,0.4c0.2,0.2,0.4,0.3,0.5,0.3c0.1-0.1,0.1,0,0.1,0c0,0.1,0.2,0.4,0.4,0.7
			c0.4,0.5,0.5,0.6,0.3,0.7c-0.1,0.1-0.2,0.2-0.1,0.2c0,0.1,0,0.1,0,0.1s-0.2-0.1-0.2-0.2c0-0.1-0.2-0.2-0.3-0.1
			c-0.1,0.1-0.2,0-0.2-0.2c0-0.3-0.4-0.5-0.5-0.2C67.1,55.6,67,55.8,67,56c0,0.2-0.1,0.3-0.1,0.3c-0.1,0-0.1,0-0.1-0.1
			c0-0.1-0.2-0.2-0.4-0.2c-0.3-0.1-0.4-0.2-0.4-0.4c0-0.1-0.1-0.3-0.2-0.3c-0.3,0-0.4-0.3-0.2-0.4c0.1-0.1,0.1-0.1,0-0.1
			c-0.1,0-0.2-0.1-0.2-0.2c0-0.1-0.1-0.3-0.1-0.3c-0.2-0.1-0.5-1-0.4-1.3c0.1-0.3,0-0.4-0.3-0.7c-0.2-0.2-0.5-0.4-0.8-0.5
			c-0.2-0.1-0.4-0.2-0.4-0.3c0-0.1-0.1-0.3-0.3-0.4c-0.5-0.5-0.7-0.8-0.7-1c0-0.3-0.2-0.2-0.4,0.1c-0.1,0.2,0,0.4,0.2,0.6
			c0.2,0.2,0.3,0.4,0.3,0.5c0,0.3,0.5,0.9,0.8,0.9c0.1,0,0.2,0.1,0.2,0.2c0,0.1,0.3,0.3,0.6,0.6c0.6,0.4,0.7,0.6,0.4,0.9
			c-0.1,0.2-0.2,0.1-0.4-0.1c-0.1-0.2-0.3-0.2-0.4-0.2c-0.1,0.1-0.1,0.1,0,0.2c0.1,0.1,0.1,0.2,0.1,0.4c0,0.3-0.6,1-0.9,1
			c-0.2,0-0.2,0.1-0.2,0.4c0,0.4-0.2,0.5-0.6,0.2c-0.1-0.1-0.2-0.2-0.3-0.2c-0.2,0-0.8-0.5-0.8-0.7c0-0.2,0.6-0.4,0.8-0.2
			c0.2,0.2,1,0,1.1-0.2c0.2-0.2,0-0.7-0.3-1c-0.7-0.6-1-0.8-1.1-0.8c0,0-0.3-0.2-0.5-0.5c-0.2-0.3-0.4-0.5-0.5-0.5
			c-0.1,0-0.2-0.1-0.2-0.1s0.1-0.1,0.1-0.1c0.2,0,0-0.5-0.2-0.7c-0.1-0.1-0.3-0.1-0.6,0.1c-0.7,0.4-0.8,0.4-1,0.4
			c-0.1,0-0.4-0.1-0.6-0.2c-0.5-0.2-0.8-0.2-0.8,0.2c0,0.4-0.2,0.5-0.8,0.7c-0.7,0.2-1.4,0.8-1.3,1.1c0.1,0.2-0.6,1.1-0.8,0.9
			c-0.1,0-0.2,0-0.3,0.1c-0.2,0.2-0.6,0.2-1,0.1c-0.4-0.2-0.8,0-0.8,0.3c0,0.3,0.1,0.4,0.6,0.4c0.2,0,0.4,0.1,0.5,0.2
			c0.1,0.1,0.3,0.1,0.5,0c1.4-0.4,1.7-0.4,4.1-0.2c0.4,0,1,0.1,1.4,0.1c0.5,0,0.7,0,0.7,0.2c0,0.1,0.1,0.1,0.2,0.1
			c0.1,0,0.2,0,0.2,0.2c0,0.1-0.1,0.3-0.2,0.3c-0.1,0.1-0.2,0.1,0,0.3c0.4,0.7,0.4,0.7,0.2,0.9C60.6,57,60.4,57,60.3,57
			c-0.1,0-0.2,0.1-0.3,0.2c0,0.1,0,0.2,0.1,0.1c0.1,0,0.3,0.1,0.6,0.4c0.2,0.2,0.5,0.5,0.7,0.5c0.5,0,1.4,0.5,1.4,0.8
			c0,0.2,0.1,0.3,0.3,0.4c0.2,0.1,0.6,0.3,0.9,0.4C64.8,60.1,64.9,60.1,65,59.4z M67.5,57c-0.2,0-0.3-0.1-0.3-0.2
			c0.1-0.2,0.1-0.2,0.9,0C69.2,57,68.6,57.2,67.5,57z M71.9,57c0-0.2,0.3-0.5,0.4-0.4c0,0,0.2,0,0.4-0.1c0.3-0.2,0.4-0.1,0.2,0.2
			c-0.1,0.1-0.1,0.2,0,0.2c0.1,0,0,0.1-0.1,0.2C72.5,57.2,71.9,57.2,71.9,57z M69,56.7c0.1-0.2,0.2-0.2,0.2,0c0,0.1-0.1,0.2-0.1,0.2
			C69,56.9,68.9,56.8,69,56.7z M62.2,56.2c0-0.2,0.1-0.2,0.2,0c0,0.1,0,0.1-0.1,0.1C62.3,56.4,62.2,56.3,62.2,56.2z M59.5,53.9
			c0-0.1,0-0.2,0-0.2c0-0.1,0-0.4,0-0.6c0-0.4,0-0.5,0.2-0.5c0.2,0,0.2-0.1,0.2-0.4c0-0.4,0-0.5,0.2-0.6c0.2-0.1,0.3-0.1,0.3,0.1
			c0,0.2-0.1,0.4-0.1,0.5c-0.1,0.1-0.1,0.4,0,0.5c0.1,0.2,0,0.9-0.2,1.1C60.1,53.9,59.5,54,59.5,53.9z M56.7,53.1
			c-0.1-0.2,0-0.4,0.3-0.4c0.1,0,0.2,0.1,0.1,0.2C57.1,53.2,56.8,53.3,56.7,53.1z M57.4,52.8c0-0.1,0.1-0.1,0.1-0.1
			c0.2,0,0.2,0.1,0,0.2C57.4,52.9,57.4,52.9,57.4,52.8z M67.9,55.3c-0.1-0.1-0.1-0.1-0.1,0.1c0,0.3,0.2,0.4,0.2,0.2
			C68,55.5,68,55.4,67.9,55.3z M82,53.6c0.2-0.1,0.2-0.2,0.1-0.6c-0.1-0.2-0.2-0.4-0.3-0.4c-0.1,0-0.1-0.1-0.1-0.2
			c0-0.1-0.1-0.4-0.3-0.6c-0.1-0.3-0.3-0.6-0.3-0.6c0-0.1-0.1-0.2-0.2-0.3c-0.1-0.1-0.2-0.3-0.2-0.5c0-0.2-0.1-0.3-0.3-0.3
			c-0.1,0-0.4-0.1-0.6-0.3c-0.2-0.2-0.4-0.3-0.4-0.3c-0.1,0-0.2-0.1-0.3-0.3c-0.3-0.4-0.6-0.5-0.8-0.3c-0.1,0.1-0.1,0.3,0,0.5
			c0.1,0.2,0.2,0.4,0.2,0.6c0,0.2,0.1,0.4,0.2,0.4c0.2,0.3,1.5,1.2,1.6,1.2c0.1,0,0.2,0.1,0.2,0.2s-0.1,0.2-0.2,0.2
			c-0.2,0-0.2,0.1-0.2,0.7c0,0.7,0.1,0.7,0.4,0.8c0.2,0,0.4,0.1,0.4,0.2C81.2,53.8,81.7,53.7,82,53.6z M69.8,53.2
			c0-0.1-0.1-0.1-0.2-0.1c-0.1,0-0.2,0.1-0.1,0.1C69.6,53.4,69.8,53.4,69.8,53.2z M71.4,52.4c0.5-0.3,1.7-0.5,1.7-0.3
			c0,0.1,0.1,0.1,0.1,0.1s0.2,0,0.3,0.1c0.1,0.1,0.6,0.2,1,0.2c0.7,0,0.9,0,1.1-0.3c0.4-0.4,0.3-0.6-0.4-1c-0.3-0.1-0.8-0.4-1.2-0.6
			c-0.7-0.4-1-0.4-1.5,0c-0.4,0.3-0.7,0.3-0.7,0c0-0.1-0.1-0.2-0.3-0.3c-0.2,0-0.2-0.1-0.2-0.3c0-0.2,0-0.2-0.2-0.2
			c-0.1,0-0.3-0.1-0.3-0.2c-0.1-0.2-0.6,0.4-0.6,0.7c0,0.1-0.1,0.3-0.3,0.4c-0.1,0.1-0.3,0.4-0.3,0.6c0,0.2-0.1,0.4-0.1,0.4
			c-0.2,0-0.3,0.6-0.1,0.9C69.9,52.8,70.8,52.8,71.4,52.4z M73.6,49.5c0-0.1,0-0.2-0.1-0.3c-0.2-0.2-0.7,0.1-0.7,0.3
			C72.8,49.7,73.5,49.7,73.6,49.5z M64.4,44.2c0.3-0.2,0.7-0.2,0.9,0c0.1,0.1,0.2,0.1,0.2,0c0.1-0.1,0.2-0.2,0.3-0.2
			c0.1,0,0.2-0.3,0.3-0.6c0-0.3,0.2-0.8,0.3-1.2c0.2-0.6,0.3-0.7,0.6-0.8c0.3-0.1,0.3-0.1-0.4-0.2c-0.4,0-0.8,0-0.8,0.1
			c-0.1,0.2-0.3,0.4-0.6,0.5c-0.3,0.1-0.5,0.5-0.4,0.7c0.1,0.1-0.1,0.6-0.4,0.8c-0.1,0.1-0.3,0.1-0.4,0.1c-0.3,0-0.4,0.2-0.2,0.3
			c0.2,0.1,0.2,0.3-0.1,0.3c-0.1,0-0.2-0.1-0.2-0.1s-0.1-0.1-0.3-0.1c-0.2,0-0.3,0.1-0.3,0.1s0.1,0.1,0.2,0.1c0.1,0,0.2,0.1,0.2,0.2
			C63.5,44.4,64.1,44.4,64.4,44.2z M65.2,42.6c0-0.1,0.1-0.3,0.2-0.4c0.3-0.3,0.3-0.1,0.1,0.3C65.3,42.9,65.2,42.9,65.2,42.6z
			 M63,43c0.1-0.1,0.2-0.2,0-0.4c-0.1-0.2-0.1-0.2-0.1-0.1c0,0.1,0,0.3-0.2,0.4C62.5,43.1,62.7,43.2,63,43z M67.5,42.5
			c0.1-0.3-0.2-0.6-0.4-0.4c-0.1,0.1-0.1,0.2,0,0.4C67.2,42.8,67.4,42.8,67.5,42.5z M72.4,41.6c0-0.2-0.2-0.3-0.3-0.2
			c-0.1,0.1,0,0.3,0.2,0.3C72.4,41.7,72.4,41.7,72.4,41.6z M68.7,41c0.1-0.2,0-0.2-0.2,0c-0.1,0.1-0.1,0.2,0,0.2
			C68.6,41.2,68.7,41.1,68.7,41z M66.3,40.4c0.1-0.2,0.1-1.5,0-1.5c0,0-0.2,0.2-0.5,0.4c-0.5,0.5-0.7,1-0.3,1.2
			C65.7,40.7,66.1,40.6,66.3,40.4z M70.2,40.5c0-0.2-0.4-0.4-0.6-0.4c-0.1,0-0.1,0.3,0.1,0.5C69.9,40.7,70.2,40.7,70.2,40.5z
			 M67.1,38.5c0.5-0.4,0.6-0.7,0.2-0.7c-0.2,0-0.6,0.3-0.6,0.5c0,0.1,0,0.2-0.1,0.3C66.4,38.9,66.6,38.8,67.1,38.5z M71,38.2
			c0-0.1-0.2-0.1-0.3-0.1c-0.2,0-0.2,0,0,0.1C71.1,38.3,71.1,38.3,71,38.2z M71.6,37.5c0-0.2-0.1-0.3-0.6-0.3c-0.6,0-0.6,0-0.6,0.3
			c0,0.2,0.2,0.3,0.6,0.3C71.6,37.7,71.6,37.7,71.6,37.5z M96.4,35.1c0-0.1,0-0.2-0.1-0.3c-0.1-0.1-0.2-0.1-0.1,0.1
			C96.3,35.3,96.3,35.3,96.4,35.1z M76.1,31.4C76,31.3,76,31.3,76.1,31.4c0,0.2,0,0.3,0.1,0.2C76.3,31.6,76.2,31.5,76.1,31.4z
			 M90.9,27.9c0,0-0.1-0.1-0.2-0.2c-0.2-0.2-0.2-0.2,0,0C90.8,27.9,90.9,28,90.9,27.9z M81.8,22.7c0-0.1-1.6-0.6-1.6-0.5
			c-0.1,0.1,0,0.1,0.9,0.4C81.6,22.8,81.8,22.8,81.8,22.7z M79.2,88.9c0-0.1-0.1-0.3-0.1-0.6c0-0.4,0.1-0.6,0.4-0.9
			c0.3-0.3,0.4-0.4,0.3-0.8c-0.1-0.5,0.2-1.2,0.5-1.2c0.4,0,1.3-0.5,1.7-0.9c1.4-1.5,1.4-1.6,1.6-1.4c0.2,0.3,0.4,1.2,0.2,1.4
			c-0.1,0.1-0.2,0.1-0.2,0c0,0-0.1,0.1-0.1,0.3c0,0.2-0.1,0.3-0.1,0.3c-0.1,0-0.1,0.1-0.1,0.1c0,0.1-0.8,1.5-1.6,2.6
			c-0.4,0.5-0.6,0.8-1.1,0.9C79.9,88.9,79.3,89,79.2,88.9z M86,85.7c0-0.1,0.1-0.1,0.1-0.1c0.2,0,0.2,0.1,0,0.2
			C86,85.8,86,85.8,86,85.7z M56,77.9c0-0.1,0.1-0.1,0.1-0.1c0.2,0,0.2,0.1,0,0.2C56.1,78,56,78,56,77.9z M34.8,76.8
			c-1.4-2.2-3.2-6.2-4-9.1c-1.4-4.7-1.9-10-1.4-14.3c0.2-1.8,0.4-1.9,0.4-0.2c-0.1,3.2,0,4.3,0.1,4.5c0.1,0.1,0.2,0.6,0.3,1.1
			c0.1,0.5,0.2,1,0.3,1.1c0.1,0.1,0.1,0.5,0.1,0.8c0,0.3,0.1,0.9,0.2,1.4c0.1,0.4,0.2,1,0.3,1.4c0.1,1.1,1.2,3.6,1.9,4.5
			c0.2,0.3,0.6,1,0.9,1.7c0.3,0.7,0.6,1.2,0.7,1.2c0.1,0,0.2,0.2,0.5,1.1c0.3,1,0.2,1.2-0.2,1.8l-0.4,0.5l0.3,1
			c0.4,1.1,0.7,2.3,0.6,2.3C35.3,77.5,35,77.2,34.8,76.8z M85.9,68.8c0.2-0.2,0.5-0.2,0.4,0c0,0.1-0.2,0.1-0.4,0.1
			C85.7,68.9,85.7,68.9,85.9,68.8z M78.5,67.9c0-0.2,0.3-0.2,0.4,0.1c0,0.1,0,0.2-0.2,0.2C78.6,68.1,78.5,68,78.5,67.9z M40.1,63.3
			c0-0.1-0.1-0.2,0-0.2c0.1-0.1,0.3,0.1,0.3,0.2C40.4,63.5,40.2,63.5,40.1,63.3z M40.6,62.8c0-0.2,0.1-0.2,0.2,0
			c0,0.1,0,0.1-0.1,0.1C40.6,62.9,40.6,62.9,40.6,62.8z M39.9,62c-0.3-0.3-0.3-0.4-0.1-0.4c0.1,0,0.1,0.1,0.1,0.1s0.1,0.3,0.2,0.4
			c0.1,0.1,0.2,0.2,0.1,0.2C40.2,62.3,40,62.2,39.9,62z M102,58.2c-0.1-0.1-0.1-0.2-0.1-0.4l0-0.3l0.1,0.3
			C102.2,58.1,102.2,58.3,102,58.2z M45.8,57.5c-0.1-0.1-0.1-0.2,0-0.2c0.1-0.1,0.2,0.1,0.2,0.2C45.9,57.7,45.9,57.7,45.8,57.5z
			 M46.7,57.3c0.2-0.2,0.4-0.3,0.4-0.3c0.1,0.1-0.4,0.6-0.6,0.6C46.4,57.6,46.5,57.5,46.7,57.3z M45.4,57c0-0.1,0.1-0.1,0.2-0.1
			c0.1,0,0.2,0.1,0.1,0.1C45.6,57.2,45.4,57.2,45.4,57z M46.3,54.1c0-0.2,0.1-0.2,0.2,0c0,0.1,0,0.1-0.1,0.1
			C46.3,54.2,46.3,54.2,46.3,54.1z M44.4,49.3c0-0.2,0.1-0.2,0.2,0c0,0.1,0,0.1-0.1,0.1C44.4,49.4,44.4,49.4,44.4,49.3z M43.7,48.3
			c-0.1-0.2,0-0.3,0.2-0.1c0.1,0.1,0.1,0.1,0,0.2C43.8,48.4,43.7,48.3,43.7,48.3z M31.1,47.1c0-0.2,0-0.2,0.1-0.2c0,0.1,0,0.2,0,0.3
			C31.1,47.4,31.1,47.3,31.1,47.1z M31.2,46c-0.1-0.2,0.2-1.4,0.3-1.4c0.1,0,0,0.6-0.2,1.3C31.3,46.1,31.2,46.1,31.2,46z M32.6,41.5
			c0-0.1,0.1-0.1,0.1-0.1c0.1,0,0.1,0.1,0.1,0.1c0,0.1-0.1,0.1-0.1,0.1C32.6,41.6,32.6,41.5,32.6,41.5z M33,40.7
			c0-0.2,0.4-0.8,0.5-0.8C33.5,40,33.1,40.8,33,40.7C33,40.8,33,40.8,33,40.7z M59.2,39.9c0-0.1,0.1-0.3,0.1-0.3
			c0.2-0.1,0.3,0,0.1,0.3C59.2,40.1,59.2,40.1,59.2,39.9z M33.5,39.7c0-0.1,0.1-0.2,0.1-0.2c0.1,0,0.1,0,0.1,0s-0.1,0.2-0.1,0.2
			C33.5,39.8,33.5,39.8,33.5,39.7z M58.1,38.4c0-0.1,0.1-0.3,0.2-0.3c0.1,0,0.1,0.1,0,0.3C58.1,38.7,58.1,38.7,58.1,38.4z
			 M41.7,37.6c0-0.1,0.1-0.2,0.1-0.3c0.1-0.1,0-0.2-0.1-0.2c-0.1,0-0.2-0.1-0.2-0.2c0-0.1,0.1-0.2,0.2-0.1c0.2,0.1,0.2-0.1,0-0.9
			c0-0.2,0-0.3,0.2-0.3c0.1,0,0.3-0.1,0.3-0.2c0,0,0.1-0.1,0.2-0.1c0.4,0,1.3-0.5,1.2-0.6c0-0.1-0.2-0.1-0.3-0.1
			c-0.3,0-0.5-0.3-0.4-0.6c0-0.1,0-0.2-0.1-0.3c-0.1,0-0.1,0-0.1,0.2c0,0.1-0.1,0.3-0.2,0.5c-0.3,0.4-0.2-0.1,0.1-0.5
			c0.3-0.6,0.3-0.7-0.1-0.8c-0.6-0.1-0.7-0.1-0.3,0.2c0.3,0.3,0.3,0.3,0.1,0.6c-0.1,0.2-0.3,0.3-0.4,0.3c-0.1,0-0.2,0.1-0.2,0.1
			c0,0.1-0.1,0.1-0.3,0.2c-0.1,0-0.2,0.1-0.2,0.2c0.1,0.3-0.2,0.9-0.4,0.9c-0.1,0-0.2,0.1-0.1,0.1c0,0.1,0.2,0.1,0.4,0.1
			c0.3-0.1,0.3,0,0.1,0.1c-0.1,0.1-0.2,0.3-0.2,0.3c0,0.2-0.6,0.1-0.9-0.2c-0.1-0.1-0.3-0.2-0.4-0.2c-0.2,0-0.2,0-0.1-0.3
			c0.1-0.1,0.3-0.3,0.4-0.3c0.1,0,0.2-0.1,0.2-0.2c0-0.1,0-0.1-0.1-0.1c-0.1,0-0.2-0.1-0.3-0.2c-0.1-0.2-0.2-0.3-0.3-0.3
			c-0.2,0-0.8,0.5-0.7,0.7c0,0.1-0.1,0.2-0.1,0.2c-0.1,0-0.2,0-0.1-0.1c0-0.1,0-0.2,0-0.2s-0.1-0.1-0.1-0.2c0-0.2,0-0.2-0.2,0
			C38.2,34.9,38,35,37.9,35c-0.1,0-0.4,0.3-0.8,0.6c-0.5,0.5-0.7,0.5-1,0.5c-0.3-0.1-0.4,0-0.7,0.3l-0.3,0.4l0.2-0.4
			c0.1-0.2,0.7-1.1,1.3-1.9c5.6-7.5,13.8-12.7,23-14.5c3.6-0.7,7.9-1,10-0.7c0.6,0.1,1,0.2,0.8,0.2c-0.2,0-0.3,0.1-0.4,0.2
			c0,0.1-0.2,0.2-0.5,0.2c-0.5,0-0.7,0.2-0.3,0.3c0.2,0,0.2,0.1,0,0.1c-0.1,0-0.3,0.1-0.4,0.2c-0.1,0.1-1,0.2-2.7,0.2
			c-3.1,0-3.3,0.1-4.2,0.5c-0.4,0.2-1,0.3-1.3,0.4c-0.4,0-0.8,0.1-0.9,0.2c-0.1,0.1-0.4,0.2-0.6,0.2C59,21.8,58.9,21.9,59,22
			c0.1,0.1,0.2,0.1,0.3,0c0.1,0,0.3,0,0.5,0.1c0.3,0.1,0.5,0.1,0.5,0c0-0.1,0-0.1-0.1-0.1c-0.1,0-0.1,0,0-0.1c0.2-0.2,1-0.2,1.3,0
			c0.3,0.2,0.3,0.2,0.1,0.3c-0.2,0.1-1.1,0.3-2,0.5c-0.3,0.1-0.5,0.1-0.5,0.4c-0.1,0.3-0.1,0.3-1,0.3c-1,0-2.2,0.3-2.1,0.5
			c0.1,0.2,0.7,0.2,0.9,0.1c0.5-0.4,1.8-0.5,1.7-0.1C58.5,24,58.9,24.2,59,24c0-0.1,0.2-0.1,0.3-0.1c0.1,0,0.2-0.1,0.2-0.2
			c0-0.1,0.1-0.2,0.2-0.1c0.1,0,0.3,0.1,0.4,0.1c0.2,0,0.2,0,0,0.2c-0.3,0.3-0.1,0.5,0.4,0.5c0.3,0,0.4,0,0.4,0.1s0.1,0.1,0.5,0.1
			s0.6,0.1,0.7,0.2c0,0.1,0.2,0.2,0.2,0.2c0.2,0,0.2,0.2,0.1,0.3c0,0,0.1,0.1,0.2,0.2c0.2,0.2,0.2,0.2,0.1,0.5
			c-0.1,0.2-0.3,0.4-0.5,0.4L62,26.4l0.3,0.3c0.2,0.2,0.4,0.3,0.5,0.3c0.2,0,0.5,0.1,0.7,0.2c0.3,0.2,0.4,0.3,0.3,0.5
			c0,0.2-0.1,0.4-0.2,0.4c-0.1,0.1-0.1,0.1,0,0.1c0.1,0,0.1,0.1,0.1,0.1c0,0.1,0,0.1,0.1,0.1c0.1,0,0.2,0.1,0.2,0.2
			c0,0.1-0.1,0.2-0.2,0.2c-0.3,0-1.3,0.5-1.3,0.6c0,0.1-0.1,0.1-0.3,0.1c-0.2,0-0.2,0-0.1,0c0.1,0.1,0.1,0.1,0,0.3
			c-0.1,0.1-0.2,0.2-0.2,0.2c0,0-0.1,0-0.2,0.1c-0.1,0.1-0.2,0.2-0.4,0.2c-0.3,0-0.5,0.3-0.4,0.5c0.1,0.1-0.2,0.3-0.7,0.3
			c-0.1,0-0.2,0.1-0.3,0.2c-0.1,0.1-0.3,0.1-0.3,0.1c-0.2,0-1.2,0.9-1.2,1.1c0,0.1-0.1,0.1-0.3,0c-0.2-0.1-0.2,0-0.2,0
			c0.1,0.1-0.9,0.4-1.2,0.3c-1.1-0.2-1.5-0.2-2.6-0.1c-0.4,0.1-0.7,0-0.8-0.1c-0.1-0.1-0.3-0.1-0.6,0c-0.2,0.1-0.5,0.2-0.5,0.3
			c0,0.1-0.2,0.1-0.4,0.1c-0.2,0-0.8,0.2-1.3,0.5c-1,0.5-1.2,0.6-1.1,0.2c0.1-0.2,0.1-0.5,0.1-0.7c0-0.5,0.5-1.1,1.6-2.1
			c1.1-1,2.6-1.8,2.6-1.4c0,0.1,0.1,0.1,0.3,0c0.3-0.1,0.3-0.1,0.1-0.2c-0.2-0.2-0.2-0.2,0-0.4c0.1-0.1,0.4-0.2,0.6-0.1
			c0.3,0,0.4,0,0.4-0.2c0-0.1,0.5-0.4,1.1-0.7c1.2-0.6,1.7-1,1.6-1.4c-0.1-0.2,0-0.3,0.4-0.5c0.3-0.1,0.6-0.3,0.6-0.2
			c0.1,0,0.2,0,0.3-0.1c0.1-0.1,0.4,0,0.7,0.2c0.4,0.2,0.5,0.3,0.6,0.1c0.2-0.4-0.8-0.6-2.9-0.7c-0.4,0-0.4-0.3,0-0.8
			c0.2-0.3,0.3-0.4,0.1-0.4c-0.1,0-0.2,0.1-0.3,0.1c-0.1,0.1-0.2,0.1-0.4-0.1c-0.3-0.2-0.4-0.2-1.2-0.1c-0.5,0.1-1,0.3-1.2,0.4
			c-0.2,0.1-0.5,0.2-0.6,0.2c-0.1,0-0.2,0.1-0.2,0.1c0.1,0.2,0.6,0.1,1-0.2c0.4-0.3,1.9-0.5,2.1-0.3c0.2,0.2-0.5,1.1-1.2,1.5
			c-0.4,0.2-0.7,0.4-0.8,0.5c0,0.1-0.2,0.2-0.2,0.2c-0.1,0-0.2,0.1-0.2,0.2c0,0.2-1,0.7-1.3,0.7c-0.1,0-0.3,0.2-0.5,0.4
			c-0.8,0.9-0.9,1-1.4,1l-0.5,0l0.4-0.4c0.2-0.2,0.4-0.4,0.4-0.4c0-0.1-0.5,0.2-0.9,0.6c-0.2,0.2-0.6,0.5-0.9,0.5
			c-0.3,0.1-0.4,0.1-0.3,0c0.2-0.2,0.1-0.4-0.1-0.2c-0.4,0.3-0.4,0.2-0.1-0.3c0.2-0.3,0.5-0.7,0.8-1c0.3-0.2,0.6-0.6,0.7-0.8
			c0.1-0.2,0.3-0.4,0.5-0.5c0.4-0.2,0.4-0.2,0.4,0.1c0,0.3,0.4,0.4,0.5,0.2c0.1-0.1,0.1-0.1,0.1,0c0,0.1,0.1,0.2,0.1,0.2
			c0.1,0,0.1-0.1,0.1-0.3c0-0.2,0-0.3,0.2-0.4c0.2-0.1,0.4-0.2,0.4-0.3c0.1-0.1,0.3-0.2,0.5-0.2c0.2,0,0.3-0.1,0.3-0.1
			c0-0.1-0.2-0.1-0.5,0c-0.3,0.1-0.7,0.1-1,0c-0.5-0.1-0.6,0-1.1,0.3c-0.3,0.2-0.6,0.4-0.7,0.3c0,0,0-0.2,0.1-0.3
			c0.2-0.1,0.2-0.2,0.1-0.3c-0.2-0.1,0.2-0.6,0.5-0.5c0.3,0.1,0.5-0.1,0.3-0.3c-0.1-0.1-0.2-0.2-0.3-0.2c-0.1,0-0.2-0.1-0.3-0.2
			c-0.2-0.2-0.9-0.2-1.3,0c-0.2,0.1-0.5,0.3-0.7,0.4c-0.2,0.1-0.7,0.4-1,0.7c-0.3,0.3-0.8,0.7-1.1,0.9s-0.6,0.6-0.7,0.7
			c-0.1,0.2-0.3,0.4-0.5,0.5c-0.2,0.1-0.6,0.3-0.8,0.5c-0.2,0.2-0.6,0.4-0.8,0.5c-0.3,0.1-0.3,0.2-0.2,0.3c0.1,0,0.2,0,0.2,0
			c0-0.1,0.1-0.1,0.1-0.1s0.3-0.1,0.6-0.3c0.3-0.2,0.5-0.3,0.5-0.2c0.1,0.3,1.3-0.1,1.8-0.6c0.1-0.1,0.3-0.2,0.5-0.2
			c0.2,0,0.4,0,0.5-0.1c0.3-0.2,1.1-0.5,1.2-0.5c0.1,0,0,0.1-0.1,0.3c-0.1,0.2-0.2,0.3-0.1,0.4c0,0-0.1,0.2-0.4,0.5
			c-0.2,0.2-0.4,0.4-0.4,0.5c0,0.1-0.2,0.2-0.5,0.3c-0.5,0.2-1,0.7-1,0.9c0,0.1,0.3,0.1,0.6,0.1c0.5-0.1,0.6,0,0.4,0.1
			c-0.2,0.2-1.2,1.1-2.1,1.9c-0.2,0.2-0.5,0.7-0.6,0.9c-0.1,0.3-0.2,0.5-0.3,0.4c-0.1,0-0.2,0.1-0.2,0.3c-0.2,0.5-0.9,1.2-1.1,1
			c-0.1-0.1-0.1-0.1-0.1,0.1c0.1,0.1,0,0.2-0.3,0.3c-0.2,0.1-0.4,0.2-0.4,0.3c0,0.1-0.1,0.2-0.2,0.2c-0.1,0-0.1,0,0,0.1
			c0.2,0.2,0.1,0.5-0.3,0.8c-0.2,0.2-0.3,0.3-0.2,0.3s-0.1,0.1-0.2,0.3C41.9,37.8,41.7,37.9,41.7,37.6z M40.4,32.3
			c0.1-0.3,0-0.3,0-0.3c-0.1,0.1-0.2,0.3-0.2,0.5c-0.1,0.3,0,0.3,0,0.3C40.2,32.7,40.3,32.5,40.4,32.3z M40,32c0-0.2,0-0.3-0.1-0.2
			c-0.1,0.1-0.2,0.6,0,0.6C40,32.3,40,32.2,40,32z M41.4,30.8c0.3-0.3,0-0.3-0.2-0.1c-0.2,0.2-0.2,0.3-0.1,0.3
			C41.1,31.1,41.3,31,41.4,30.8z M42.1,29.7c0.1-0.2-0.1-0.2-0.3,0c-0.2,0.1-0.2,0.1,0,0.1C42,29.8,42.1,29.8,42.1,29.7z M43.4,28.9
			c0.2-0.2,0.3-0.4,0.3-0.5c-0.1-0.1,0-0.1,0.1,0c0.1,0.1,0.1,0,0.1-0.1c-0.1-0.2-0.3-0.2-0.4,0.1c-0.1,0.1-0.3,0.4-0.5,0.6
			c-0.2,0.2-0.3,0.4-0.3,0.5C42.6,29.6,42.7,29.5,43.4,28.9z M54.5,26.1c0-0.1-0.1-0.1-0.2-0.1c-0.1,0-0.1,0.1,0,0.1
			c0,0.1,0.1,0.1,0.2,0.1C54.6,26.3,54.6,26.2,54.5,26.1z M59.8,24.6c0.2,0,0.2,0,0,0.1c-0.2,0.1-0.2,0.1,0,0.1
			c0.1,0,0.3-0.1,0.4-0.2c0.1-0.1,0.1-0.2-0.1-0.3c-0.3-0.1-0.7,0-0.6,0.3c0,0.1,0,0.1,0.1,0.1C59.5,24.7,59.7,24.6,59.8,24.6z
			 M56,23.5c0.1,0,0.2-0.1,0.3-0.2c0.1-0.3,0-0.2-0.5,0.1c-0.2,0.2-0.4,0.3-0.3,0.4c0.1,0.1,0.1,0.1,0.2-0.1
			C55.8,23.6,55.9,23.5,56,23.5z M57.5,22.4c0-0.1,0-0.1,0-0.1c-0.1,0-0.2,0.1-0.2,0.1c0,0.1,0,0.1,0,0.1S57.4,22.4,57.5,22.4z
			 M58.5,21.3c0-0.1-0.1-0.1-0.2-0.1c-0.1,0-0.2,0.1-0.2,0.1c0,0.1,0.1,0.1,0.2,0.1C58.4,21.5,58.5,21.4,58.5,21.3z M55.5,36.2
			c0-0.1-0.1-0.2-0.2-0.3c-0.2-0.1-0.2-0.3,0-0.3c0.1,0,0.2-0.1,0.2-0.2c0-0.1-0.1-0.2-0.1-0.2c-0.1,0-0.1-0.1-0.1-0.1
			c0-0.1,0.2-0.1,0.3,0c0.2,0.1,0.2,0,0.1-0.2c-0.1-0.3,0.1-0.4,0.5-0.4c0.2,0,0.2,0.1,0.2,0.3c-0.1,0.2,0,0.3,0.2,0.3
			c0.1,0,0.5,0.1,0.8,0.1c0.4,0.1,0.5,0.2,0.4,0.5c-0.1,0.5-0.4,0.7-1.5,0.7C55.7,36.4,55.5,36.4,55.5,36.2z M72.9,35.2
			c-0.2-0.2-0.1-0.4,0.2-0.4c0.2,0,0.3,0.1,0.3,0.3C73.3,35.2,73.1,35.3,72.9,35.2z M66,31.6c-0.1-0.1-0.1-0.4-0.1-0.5
			c0-0.1-0.1-0.2-0.1-0.2c-0.1,0-0.2-0.5,0-0.7c0.1-0.1,0.3-0.1,0.5-0.1c0.2,0,0.4,0,0.4-0.1c0-0.1,0.9-0.1,1,0.1
			c0.1,0.1-0.2,0.5-0.4,0.4c-0.2-0.1-0.2,0.2,0,0.4c0.2,0.3,0.1,0.5-0.2,0.5c-0.2,0-0.2-0.1-0.2-0.2c0.1-0.4-0.1-0.2-0.4,0.2
			C66.2,31.9,66.2,31.9,66,31.6z M49,29.9c0.1-0.1,0.2-0.1,0.2-0.1C49.3,29.9,49.2,29.9,49,29.9C48.9,30.1,48.9,30.1,49,29.9z
			 M75.2,29.7c-0.2-0.3-0.1-0.3,0.2,0c0.1,0.1,0.2,0.2,0.1,0.2C75.4,29.9,75.3,29.9,75.2,29.7z M69.6,29.7c-0.1,0-0.1-0.1,0.1-0.3
			c0.1-0.2,0.3-0.2,0.4-0.1c0.1,0.1,0.1,0.2,0.1,0.2c0,0.1,0,0.1,0.1,0.1c0.1,0,0.2-0.2,0.1-0.5c0-0.4,0-0.4,0.3-0.3
			c0.2,0.1,0.4,0.1,0.4,0c0.1-0.1,0.1-0.1,0.2,0c0,0.1,0,0.1-0.1,0.1c-0.1,0-0.1,0.1-0.1,0.1c0,0.1,0,0.1-0.1,0.1
			c-0.1,0-0.1,0,0,0.1c0.2,0.1,0.1,0.1-0.1,0.1c-0.1,0-0.3-0.1-0.3-0.2c0-0.1-0.1-0.1-0.1,0.1C70.5,29.8,70,29.9,69.6,29.7z
			 M46.4,28.4c0-0.1,0.2-0.1,0.4-0.2c0.3-0.1,0.3-0.1,0,0.1C46.6,28.6,46.3,28.6,46.4,28.4z M49.7,27.2c0.2-0.2,0.4-0.2,0.3,0
			c0,0.1-0.2,0.1-0.3,0.1C49.5,27.3,49.5,27.3,49.7,27.2z M50.3,26.5c0-0.1,0.1-0.1,0.2-0.1s0.2,0.1,0.2,0.1s-0.1,0.1-0.2,0.1
			C50.4,26.7,50.3,26.6,50.3,26.5z M61.6,24.3c0,0,0.2,0,0.2,0c0.1,0,0.1,0.1-0.1,0.1C61.6,24.4,61.6,24.3,61.6,24.3z M60.8,24.1
			c-0.1,0-0.2-0.1-0.1-0.2c0.2-0.1,1.3-0.1,1.2,0C61.6,24.1,61,24.2,60.8,24.1z M61.6,23.5c-0.3-0.1-0.2-0.3,0.1-0.3
			c0.2,0,0.3,0.1,0.3,0.2C61.9,23.6,61.8,23.6,61.6,23.5z M59.8,23.5c0,0,0.1-0.2,0.3-0.4c0.2-0.2,0.5-0.3,0.9-0.4
			c0.4,0,0.8-0.1,1-0.2c0.2-0.1,0.3,0,0.3,0.1c0,0.3-0.3,0.5-0.5,0.4c-0.1,0-0.4,0-0.7,0c-0.5,0.1-0.5,0.1-0.3,0.2
			c0.2,0.1,0.2,0.1-0.1,0.1c-0.2,0-0.4,0-0.6,0.1C59.9,23.5,59.8,23.5,59.8,23.5z M71.9,21.1c0.1,0,0.3,0,0.4,0
			c0.1,0,0.1,0.1-0.2,0.1C71.9,21.2,71.8,21.2,71.9,21.1z"/>
	</g>
	<path id="XMLID_170_" class="st2" d="M327.5,193.5"/>
	<path id="XMLID_187_" class="st2" d="M438.5,193.5"/>
	<path id="XMLID_204_" class="st2" d="M549.5,193.5"/>
	<path id="XMLID_221_" class="st2" d="M660.5,193.5"/>
	<path id="XMLID_238_" class="st2" d="M771.5,193.5"/>
	<g id="XMLID_40_">
		<rect id="XMLID_140_" x="5.1" y="205.3" class="st5" width="89" height="40.5"/>
		<text id="XMLID_139_" transform="matrix(1 0 0 1 65.9256 213.1879)"><tspan x="0" y="0" class="st0 st6 st14">100%</tspan><tspan x="-39.4" y="10.8" class="st8 st6 st15">of the Population</tspan></text>
	</g>
	<g id="XMLID_51_">
		<rect id="XMLID_138_" x="4" y="415" class="st5" width="89" height="40.5"/>
		<text id="XMLID_137_" transform="matrix(1 0 0 1 77.105 422.858)"><tspan x="0" y="0" class="st0 st6 st14">0%</tspan><tspan x="-51.6" y="10.8" class="st8 st6 st15">of the Population</tspan></text>
	</g>
	<polygon id="XMLID_41_" class="st16" points="33.8,156.1 26.3,143.1 33.8,130.2 48.8,130.2 56.2,143.1 48.8,156.1 	"/>
</g>
<g id="bar">
	<g id="XMLID_10_">
		<g id="binary">
			<rect id="XMLID_135_" x="99.5" y="205.3" class="st5" width="52.8" height="257.2"/>
			<text id="XMLID_134_" transform="matrix(1 0 0 1 100.6501 209.5811)" class="st0 st17 st18">010100010010</text>
		</g>
		<linearGradient id="XMLID_14_" gradientUnits="userSpaceOnUse" x1="125.8544" y1="501" x2="125.8544" y2="205.29">
			<stop  offset="9.950249e-002" style="stop-color:#35B44A"/>
			<stop  offset="0.1642" style="stop-color:#35B44A"/>
			<stop  offset="0.3284" style="stop-color:#35B44A;stop-opacity:0.4806"/>
			<stop  offset="0.7164" style="stop-color:#35B44A;stop-opacity:0.1"/>
			<stop  offset="1" style="stop-color:#35B44A;stop-opacity:0.1"/>
		</linearGradient>
		<polygon id="XMLID_45_" class="st19" points="99.5,205.3 99.5,475.7 123.3,501 128.5,501 152.3,475.7 152.3,205.3 		"/>
	</g>
	<rect id="XMLID_20_" x="110.5" y="475.7" class="st20" width="28.7" height="119.6"/>
	<rect id="XMLID_130_" x="115.9" y="462.4" class="st5" width="18" height="129.7"/>
	<text id="country-name" transform="matrix(8.979319e-011 -1 1 8.979319e-011 133.1165 586.4775)" class="st21 st6 st22">Switzerland</text>
</g>
</svg>
