<?xml version="1.0" encoding="utf-8"?>
<!-- Generator: Adobe Illustrator 19.0.0, SVG Export Plug-In . SVG Version: 6.00 Build 0)  -->
<svg version="1.1" xmlns="http://www.w3.org/2000/svg" xmlns:xlink="http://www.w3.org/1999/xlink" x="0px" y="0px"
	 viewBox="0 0 841.9 595.3" style="enable-background:new 0 0 841.9 595.3;" xml:space="preserve">
<style type="text/css">
	.st0{fill:#DDD8BA;}
	.st1{fill:#99C4D1;}
	.st2{fill:#52BBD1;}
	.st3{fill:#41A3B6;}
	.st4{fill:#272530;}
	.st5{fill:none;}
	.st6{font-family:'Helvetica';}
	.st7{font-size:36px;}
	.st8{fill:#9AC4D1;}
	.st9{font-size:30px;}
	.st10{fill:#FBB040;stroke:#52BBD1;stroke-width:3;stroke-miterlimit:10;}
	.st11{font-size:18px;}
	.st12{font-size:11px;}
	.st13{font-size:9px;}
	.st14{fill:#FFFFFF;stroke:#CDCCCC;stroke-width:0.75;}
	.st15{fill:#CDCCCC;}
	.st16{font-family:'CourierNewPSMT';}
	.st17{font-size:7px;}
	.st18{fill:url(#XMLID_14_);}
	.st19{fill:#35B44A;}
	.st20{fill:#EDF5E4;}
	.st21{font-size:24px;}
</style>
<g id="Layer_1">
	<circle id="XMLID_1_" class="st0" cx="48" cy="-65" r="26"/>
	<circle id="XMLID_3_" class="st1" cx="98" cy="-65" r="26"/>
	<circle id="XMLID_4_" class="st2" cx="148" cy="-65" r="26"/>
	<circle id="XMLID_5_" class="st3" cx="198" cy="-65" r="26"/>
	<circle id="XMLID_6_" class="st4" cx="248" cy="-65" r="26"/>
	<rect id="XMLID_2_" class="st4" width="841.9" height="595.3"/>
	<rect id="XMLID_8_" x="32.8" y="53" class="st5" width="439.2" height="29.4"/>
	<text id="XMLID_7_" transform="matrix(1 0 0 1 32.8199 78.8341)"><tspan x="0" y="0" class="st0 st6 st7">Internet Access</tspan><tspan x="248.1" y="0" class="st8 st6 st9"> over Time</tspan></text>
	<line id="XMLID_11_" class="st10" x1="0" y1="143.1" x2="841.9" y2="143.1"/>
	<path id="XMLID_13_" class="st2" d="M216.5,193.5"/>
	<g id="XMLID_19_">
		<rect id="XMLID_143_" x="10.8" y="171.1" class="st5" width="40.5" height="18.4"/>
		<text id="XMLID_142_" transform="matrix(1 0 0 1 10.8406 183.9863)" class="st0 st6 st11">1980</text>
	</g>
	<g id="XMLID_22_">
		<rect id="XMLID_141_" x="790.8" y="171.1" class="st5" width="40.5" height="18.4"/>
		<text id="XMLID_140_" transform="matrix(1 0 0 1 790.8414 183.9863)" class="st0 st6 st11">2015</text>
	</g>
	<path id="XMLID_170_" class="st2" d="M327.5,193.5"/>
	<path id="XMLID_187_" class="st2" d="M438.5,193.5"/>
	<path id="XMLID_204_" class="st2" d="M549.5,193.5"/>
	<path id="XMLID_221_" class="st2" d="M660.5,193.5"/>
	<path id="XMLID_238_" class="st2" d="M771.5,193.5"/>
	<g id="XMLID_40_">
		<rect id="XMLID_139_" x="5.1" y="205.3" class="st5" width="89" height="40.5"/>
		<text id="XMLID_138_" transform="matrix(1 0 0 1 65.9256 213.1879)"><tspan x="0" y="0" class="st0 st6 st12">100%</tspan><tspan x="-39.4" y="10.8" class="st8 st6 st13">of the Population</tspan></text>
	</g>
	<g id="XMLID_51_">
		<rect id="XMLID_137_" x="5.1" y="450" class="st5" width="89" height="40.5"/>
		<text id="XMLID_136_" transform="matrix(1 0 0 1 78.1575 457.858)"><tspan x="0" y="0" class="st0 st6 st12">0%</tspan><tspan x="-51.6" y="10.8" class="st8 st6 st13">of the Population</tspan></text>
	</g>
</g>
<g id="Slider">
	<g id="XMLID_119_">
		<path id="XMLID_118_" class="st14" d="M50.6,143.9c0,8.9-7.2,16-16,16s-16-7.2-16-16l0,0c0-8.9,7.2-16,16-16
			S50.6,135.1,50.6,143.9z"/>
		<path id="XMLID_122_" class="st15" d="M33.4,159c-0.1,0-0.2-0.1-0.2-0.1c0,0,0-0.1,0-0.1c0-0.1-0.4-0.4-0.6-0.6
			c-0.1-0.1-0.2-0.2-0.3-0.3c0-0.1-0.1-0.2-0.1-0.2c0,0,0,0,0-0.1c0,0-0.1-0.1-0.1-0.2c-0.1,0-0.1-0.1-0.1-0.1c0,0,0,0,0,0
			c-0.1,0-0.1,0-0.1-0.1c0-0.1-0.1-0.2-0.2-0.4c-0.3-0.3-0.4-0.6-0.2-0.7c0,0,0.1-0.1,0.1-0.2c0-0.1,0.1-0.2,0.2-0.3
			c0.2-0.1,0.2-0.2,0-0.4c-0.1-0.1-0.1-0.2-0.1-0.3c0,0-0.1-0.3-0.2-0.5c-0.2-0.3-0.3-0.5-0.5-0.7c-0.3-0.2-0.5-0.6-0.5-0.7
			c0,0,0,0,0.1,0c0.1,0,0.1-0.1,0.1-0.2c0-0.1,0-0.2,0.1-0.3c0.1-0.2,0.1-0.6-0.1-0.4c0,0-0.1,0.1-0.1,0.1c-0.1,0-0.1-0.2,0-0.2
			c0.2-0.1,0-0.1-0.4-0.1c-0.2,0-0.3,0-0.4,0c0,0-0.1-0.2-0.2-0.3c-0.1-0.2-0.2-0.3-0.3-0.3c-0.3-0.1-0.6,0-1.1,0
			c-0.4,0-0.4,0-0.7-0.1c-0.2-0.1-0.4-0.2-0.7-0.2c-0.5,0-0.6-0.1-1-0.7c-0.2-0.2-0.4-0.4-0.5-0.6c-0.2-0.1-0.2-0.2-0.2-0.3
			c0.1-0.1,0-0.4-0.1-0.5c-0.1-0.1-0.2-0.2-0.2-0.3c0-0.1-0.1-0.2-0.2-0.3c-0.1-0.1-0.1-0.2-0.1-0.3c0-0.1,0-0.3,0-0.4
			c0-0.2,0-0.3,0.1-0.3c0.1-0.1,0.2-0.4,0.2-0.4c0,0-0.1-0.1-0.1-0.2c0-0.1,0-0.2,0-0.2c0,0,0,0,0,0.1c0,0.2,0.1,0.1,0.1-0.1
			c0-0.2,0-0.2,0-0.2c-0.1,0-0.1,0.1,0-0.4c0.1-0.3,0.1-0.4,0.3-0.6c0.1-0.1,0.3-0.3,0.3-0.3c0.1,0,0.1-0.1,0.1-0.1
			c0-0.1,0.2-0.3,0.3-0.4c0.1,0,0.2-0.1,0.2-0.2c0.1-0.1,0.1-0.1,0.2-0.1c0.1,0,0.1,0,0.1,0c0,0,0-0.1,0.1-0.1c0,0,0.1,0,0.1,0
			c0,0,0.1-0.1,0.2-0.1c0.1,0,0.1-0.1,0.2-0.3c0-0.3,0.4-0.6,0.7-0.7c0.3-0.1,0.5-0.4,0.5-0.6c0-0.1-0.1-0.2-0.1-0.2
			c-0.1,0-0.1,0-0.1-0.1c0,0-0.1-0.1-0.1-0.1c-0.1,0-0.1,0,0-0.2c0.1-0.1,0.1-0.2,0-0.3c0-0.1,0-0.2,0.1-0.4
			c0.2-0.2,0.3-0.5,0.3-0.7c0-0.1,0-0.2,0.2-0.2c0.2,0,0.2,0,0.3,0c0.1,0,0.1,0.1,0.2,0.1c0,0,0.1,0,0.1,0.1c0,0,0.2,0.1,0.3,0.1
			c0.3,0.1,0.3,0.1,0.4,0c0.1-0.1,0.1-0.2,0.1-0.3c0-0.2,0-0.6-0.1-0.6c0,0-0.1,0-0.1-0.1c0,0,0-0.1-0.1-0.1c0,0-0.1-0.1-0.1-0.2
			c0-0.2,0-0.2,0.2-0.2c0.1,0,0.2,0,0.2,0.1c0,0,0,0,0-0.1c0-0.1,0-0.1,0.1-0.1c0,0,0.1,0,0.1,0c0,0,0.1,0,0.1,0
			c0.1,0.1,0.1,0.1,0.3,0l0.2-0.1l-0.2,0c-0.1,0-0.4-0.1-0.6-0.1c-0.2,0-0.4,0-0.5,0c-0.1,0-0.1-0.1,0.1-0.1c0.1,0,0.2-0.1,0.3-0.1
			c0.1-0.1,0.1-0.1,0-0.1c-0.1-0.1,0-0.2,0.1-0.2c0.1,0,0.1,0,0.1-0.1c0-0.1,0-0.1,0.1-0.1c0.1,0,0.1,0,0.1-0.1c0-0.1,0-0.1,0-0.1
			c0,0.1-0.1,0.1-0.1,0.1c-0.1,0-0.1,0-0.1-0.1c0-0.1,0-0.1-0.1,0c-0.1,0-0.1,0.1-0.1,0.2c0,0.1,0,0.1-0.1,0.2
			c-0.1,0.1-0.6,0.2-0.7,0.1c-0.2-0.1-0.1-0.3,0-0.4c0.1,0,0.1-0.1,0.1-0.1c0-0.1,0.1-0.3,0.2-0.3c0,0,0.1,0,0.2-0.1
			c0.1-0.1,0.2-0.1,0.2-0.1c0.1,0,0.1,0,0.2-0.1c0-0.1,0-0.1,0-0.1c-0.1,0-0.1-0.1,0-0.1c0.1,0,0.1,0,0,0c-0.1,0-0.1-0.1,0-0.3
			c0.1-0.1,0.3-0.2,0.3-0.1c0,0,0,0,0.1,0c0,0,0.1,0,0.1,0c0,0,0.1,0,0.2-0.1c0.1-0.1,0.1-0.1,0.2,0c0.1,0.1,0,0.1-0.1,0.2
			c-0.2,0.1-0.2,0.2-0.1,0.2c0.1,0,0.1,0.2,0,0.3c-0.1,0.1-0.1,0.3,0.1,0.8c0.1,0.3,0.1,0.7,0,0.7c0,0-0.1,0,0,0.1
			c0.1,0.1,0.3-0.1,0.5-0.3c0.1-0.2,0.2-0.2,0.4-0.2c0.3,0,0.3,0,0.3-0.4c0-0.3,0.1-0.4,0.3-0.5c0.2-0.1,0.2-0.1,0.2,0
			c0,0,0,0,0-0.1c0-0.2-0.1-0.2-0.2-0.1c-0.1,0-0.2,0.1-0.3,0.1c-0.2,0-0.3-0.1-0.3-0.6c0-0.4,0.1-0.6,0.4-0.7
			c0.1-0.1,0.2-0.1,0.2-0.1c0,0,0.1-0.1,0.2-0.1c0.1,0,0.3-0.2,0.4-0.3c0.1-0.2,0.2-0.3,0.3-0.3c0.1,0,0.1-0.1,0.1-0.1
			c0,0-0.1,0-0.1,0c-0.1,0-0.1,0-0.1,0c0,0,0.3-0.3,0.5-0.5c0.1-0.1,0.2-0.1,0.2-0.2c0,0,0.1-0.1,0.2-0.1c0.1,0,0.2,0,0.2,0
			c0-0.1,0.3-0.2,0.5-0.2c0.1,0,0.2,0,0.3,0.1c0.1,0.1,0.2,0.1,0.2,0.1c0,0,0.1,0,0.1,0.1c0,0,0,0.1,0.1,0.1c0.2,0,0.8,0.3,0.9,0.4
			c0,0.1,0.1,0.1,0.2,0.1c0.1,0,0.1,0,0.1-0.1c0-0.1-0.1-0.1-0.1-0.2c0,0,0-0.1-0.1-0.1c0,0-0.1,0-0.1-0.1c0-0.1,0-0.1,0.2-0.1
			c0.1,0,0.2,0,0.3,0.1c0.1,0,0.1,0,0.3-0.2c0.1-0.1,0.3-0.2,0.4-0.3c0.3-0.1,0.1-0.3-0.2-0.2c-0.1,0-0.3,0-0.4-0.1
			c-0.1-0.1-0.2-0.1-0.2-0.3c0-0.1,0-0.3-0.1-0.4c-0.1-0.3,0-0.4,0.1-0.5c0.1-0.1,0.1-0.1,0.1-0.2c0,0,0-0.1,0.1-0.1
			c0.1,0,0.1,0.1,0.1,0.2c0,0.1,0,0.4,0,0.6c0,0.3,0,0.4,0.1,0.5c0.2,0.1,0.6,0.2,0.9,0.2l0.2,0l-0.1-0.1c-0.1-0.1-0.1-0.2-0.1-0.2
			s0-0.1-0.1-0.2c0,0-0.1-0.2-0.1-0.3c0-0.2,0-0.2,0.1-0.1c0.1,0,0.1,0,0.2-0.1l0-0.1l0.1,0.1c0.1,0.1,0.1,0.1,0.1,0
			c0,0,0-0.1-0.1-0.1c0,0,0-0.1,0-0.1c0-0.1,0-0.1,0-0.1c0,0-0.1-0.1-0.1-0.2c-0.1-0.5-0.1-0.5-0.2-0.5c-0.1,0-0.1-0.2,0-0.2
			c0.1,0,0.1,0,0-0.1c-0.1,0-0.1-0.1-0.1-0.1c0,0,0,0,0,0c0,0-0.2,0.1-0.3,0.1c-0.4,0.1-0.5,0-0.6-0.1c-0.1-0.1-0.1-0.1,0.1-0.1
			c0.1,0,0.2,0,0.3,0c0.1-0.1,0.2-0.1,0.3-0.1c0.1,0,0.1,0,0.1,0c0,0,0.1,0,0.2,0c0.2,0,0.2,0,0.3,0c0-0.1,0.2-0.1,0.5,0
			c0.2,0.1,0.3,0.1,0.3,0c0-0.1,0-0.1,0.1-0.2c0.1-0.1,0.1-0.1-0.1-0.1c-0.2,0-0.2,0-0.2-0.2c0-0.1,0.1-0.1,0.3-0.1
			c0.1,0,0.2,0,0.2,0c0,0-0.1-0.1-0.1-0.1c0-0.2-0.5-0.3-0.7-0.2c-0.2,0.1-0.5,0.1-0.5-0.1c0-0.1,0-0.1-0.1-0.1
			c-0.1-0.1-0.1-0.2,0.1-0.2c0.1,0,0.1,0,0.1,0.1c0,0.1,0.1,0.1,0.1,0.1c0,0,0.1,0,0.2,0.1c0.1,0.1,0.1,0.1,0.1,0
			c0,0,0.1-0.1,0.1-0.1c0.1,0,0.1-0.1,0-0.1c0,0,0-0.1,0-0.1c0-0.1,0-0.1-0.2-0.2c-0.2-0.1-0.2-0.2-0.1-0.2c0.1,0-0.4-0.2-0.6-0.3
			c-0.1,0-0.5-0.2-0.8-0.3c-0.3-0.2-0.6-0.3-0.7-0.3c-0.1,0-0.2-0.1,0-0.1c0,0,0.1,0,0.1-0.1c0,0,0-0.1,0.1-0.1c0,0,0.1,0,0.1,0.1
			c0,0,0.1,0.1,0.1,0.1c0.1,0,0.2,0,0.3,0.1c0.2,0.1,0.7,0.2,0.7,0.1c0,0,0-0.1,0.1,0c0.1,0,0.4,0.1,0.7,0.2
			c0.3,0.1,0.7,0.2,0.7,0.2c0.3,0.1,0.5,0.2,0.6,0.2c0.1,0,0.2,0,0.3,0.1c0.1,0.1,0.2,0.1,0.2,0c0,0,0-0.1,0.1-0.1
			c0,0,0.1,0,0.1,0.1c0,0,0,0.1,0.1,0.1c0.1,0,0.2,0.1,0.4,0.1c0.2,0.1,0.4,0.1,0.5,0.2c0.2,0,0.7,0.3,0.7,0.4
			c0,0.1-0.6-0.1-1.1-0.2c-0.1,0,0,0,0.1,0.1c0.1,0.1,0.2,0.2,0.2,0.2c0,0,0,0.1,0.1,0.1s0.2,0.1,0.3,0.2c0.1,0.1,0.5,0.4,0.8,0.5
			c0.3,0.2,0.6,0.4,0.7,0.5c0.1,0.1,0.2,0.1,0.2,0.1c0.1-0.1,0-0.2-0.1-0.1c-0.1,0-0.1,0-0.1-0.2c0,0,0-0.1-0.1-0.1
			c-0.2-0.1,0-0.1,0.4,0c0.4,0.1,0.5,0.2,0.4,0.3c0,0,0,0,0,0.1c0,0,0.1,0,0.1,0c0,0,0.1,0,0.1,0c0,0,0.1,0.1,0.2,0.1
			c0.1,0,0.2,0,0.2,0.1c0,0.1,0,0.1,0.1,0.1c0.1,0,0.7,0.4,0.7,0.5c0,0.1-0.1,0.1-0.2,0c-0.1-0.1-0.1-0.1-0.2-0.2
			c-0.1-0.1,0.2,0.2,0.7,0.6c0.2,0.2,0.4,0.4,0.5,0.5c0.2,0.3,0.8,1,1.1,1.2l0.2,0.1l-0.2-0.3c-0.2-0.3-0.2-0.3-0.2-0.3
			c0.1,0,1,1.2,1,1.3c0,0-0.1,0-0.1,0c-0.1-0.1-0.1,0,0,0.1c0.1,0.1,0.1,0.2,0.1,0.2c0,0-0.2-0.1-0.3-0.3c-0.2-0.2-0.3-0.3-0.3-0.3
			c0,0-0.1,0-0.2-0.1c-0.1-0.1-0.1-0.1,0,0.1c0.1,0.1,0.1,0.2,0,0.2c0,0,0,0,0,0.1c0,0.1,0,0.1,0,0c-0.1-0.1,0,0.1,0.2,0.2l0.2,0.1
			l0-0.2c0-0.3,0.1-0.2,0.3,0.2c0.2,0.4,0.3,0.5,0.3,0.4c0,0,0.1,0,0.3,0.2c0.3,0.3,0.4,0.5,0.7,1c0.1,0.2,0.2,0.4,0.3,0.4
			c0.2,0.2,0.3,0.3,0.3,0.5c0.1,0.2,0.1,0.4,0,0.3c-0.1,0-0.1,0,0,0.1c0.1,0.1,0.3,1.1,0.3,1.3c0,0.1,0.1,0.3,0.1,0.4
			c0.1,0.3,0.2,0.8,0.1,0.8c0,0-0.1-0.1-0.1-0.2c-0.1-0.4-0.1-0.4-0.1-0.4c0,0,0,0.2,0.1,0.4c0.1,0.4,0.1,0.4,0.3,0.6
			c0.3,0.3,0.4,0.6,0.4,1.6c0,0.6,0,0.7,0,0.7c0,0-0.1,0-0.1-0.1c0,0,0-0.1-0.1-0.1c0,0-0.1,0-0.1-0.1c0-0.1-0.1-0.1-0.1,0
			c0,0.1,0,0.7,0.1,0.7c0,0,0.1,0.1,0.1,0.2c0,0.2,0.1,0.2,0.1,0.3c0.2,0.1,0.4,1.1,0.2,1.9c0,0.3-0.1,0.5-0.1,0.5
			c0,0-0.1,0.1-0.1,0.1c0,0,0,0.1-0.1,0.1c0,0-0.1,0-0.1-0.1c0-0.1-0.2-0.6-0.3-0.6c-0.1,0,0-0.1,0-0.2c0.1-0.1,0.1-0.1-0.1-0.2
			c-0.2-0.1-0.2-0.3,0-0.5c0.1-0.1,0.1-0.1,0.2-0.1c0,0,0.1,0.1,0.1,0c0.1-0.1-0.1-0.7-0.2-0.7c0,0-0.1-0.2-0.2-0.4
			c-0.2-0.7-0.2-0.9-0.3-1.2l-0.1-0.3l-0.1,0.3c-0.1,0.3-0.2,0.4-0.2,0.3c0,0,0-0.2-0.1-0.3c0-0.1-0.1-0.2-0.1-0.2
			c0,0-0.1-0.1-0.2-0.2c-0.1-0.1-0.2-0.2-0.2-0.2c-0.1,0-0.4,0.8-0.4,0.9c0,0.1,0,0.2-0.1,0.4c-0.1,0.3-0.2,0.9-0.2,1.1
			c0,0.1-0.1,0.2-0.1,0.4c-0.1,0.2-0.1,0.3-0.1,0.5c0,0.1,0.1,0.3,0.1,0.4c0,0.3,0.1,0.6,0.2,0.6c0.1,0.1,0.3,0.4,0.3,0.5
			c0,0.2-0.1,0.4-0.2,0.5c-0.1,0-0.2-0.1-0.2-0.4c0-0.3-0.1-0.3-0.2,0c0,0.1-0.1,0.2-0.2,0.2c-0.1,0-0.2-0.1-0.3-0.3
			c-0.1-0.2-0.2-0.3-0.2-0.3c0,0-0.1-0.1-0.2-0.3c-0.1-0.2-0.2-0.3-0.3-0.4c-0.1-0.1-0.1-0.2-0.2-0.3c0-0.1-0.1-0.1-0.1-0.1
			c0,0,0,0,0-0.1s0-0.2-0.1-0.3c-0.1-0.1-0.1-0.2-0.1-0.2c0,0-0.1,0-0.2,0c-0.1,0-0.3,0-0.4-0.1c-0.1-0.1-0.2-0.1-0.3-0.1
			s-0.1,0-0.1-0.1c0,0-0.1-0.1-0.2-0.1c-0.1,0-0.2-0.1-0.2-0.1c0,0-0.1-0.1-0.1-0.1c-0.1,0-0.1,0-0.2,0c-0.1,0.1-0.2,0.1-0.3,0.2
			c-0.1,0-0.2,0.1-0.3,0.2c-0.1,0.1-0.1,0.1-0.2,0.1c0,0-0.2,0-0.3,0.1c-0.3,0.1-0.6,0.1-0.7,0c-0.1-0.1-0.1,0.1,0,0.3
			c0.1,0.2,0.2,0.2,0.4,0.2c0.1,0,0.2,0,0.3,0.1c0.2,0.1,0.2,0.1,0.2,0.3c0,0.1,0,0.3-0.1,0.4c0,0.1-0.1,0.2-0.1,0.2
			c-0.1,0-0.1,0.1-0.1,0.2c0,0.1,0,0.2-0.1,0.3c-0.1,0-0.1,0.1-0.1,0.2c0,0.1,0,0.1-0.1,0.1c-0.1,0-0.1,0.1-0.1,0.2
			c0,0.1-0.1,0.2-0.1,0.2c-0.2,0-0.5,0.3-0.5,0.5c0,0.1-0.1,0.2-0.3,0.3c-0.1,0.1-0.3,0.2-0.4,0.3c-0.2,0.1-0.7,0.5-0.7,0.5
			c0,0-0.1,0.1-0.2,0.1c-0.1,0.1-0.2,0.1-0.3,0.1c-0.2,0-0.2,0-0.3-0.2c-0.2-0.3-0.2-0.4-0.2-0.6c0-0.1-0.1-0.2-0.3-0.4
			c-0.1-0.1-0.3-0.3-0.3-0.4c0-0.1-0.1-0.1-0.2-0.2c-0.1-0.1-0.2-0.1-0.2-0.3c-0.1-0.4-0.2-0.6-0.4-0.6c-0.1,0-0.2-0.1-0.2-0.2
			c0-0.1-0.1-0.2-0.1-0.2c0,0-0.1-0.1-0.1-0.1c-0.1-0.2-0.4-0.5-0.5-0.5c-0.1,0-0.1,0.1-0.1,0.1c0,0.1,0.3,0.6,0.4,0.8
			c0.1,0.1,0.1,0.1,0.1,0.2c0,0.1,0,0.2,0.1,0.2c0.2,0,0.3,0.3,0.4,0.7c0,0.2,0.1,0.3,0.2,0.3c0.1,0.1,0.2,0.2,0.3,0.3
			c0.1,0.1,0.1,0.3,0.2,0.3c0,0,0,0,0,0c0,0-0.1,0,0,0.1c0,0.1,0.1,0.1,0.1,0c0-0.1,0-0.1,0.1-0.1c0.1,0,0.1,0.1,0.1,0.1
			c0,0.1,0.1,0.2,0.2,0.3c0.3,0.2,0.5,0.4,0.6,0.6c0.1,0.2,0.2,0.3,0.5,0.1c0.1-0.1,0.3-0.1,0.3-0.2c0,0,0.1-0.1,0.2-0.1
			c0.3-0.1,0.7-0.3,0.7-0.4c0,0,0.1-0.1,0.1-0.1c0.1,0,0.1,0,0.1,0.1c0,0.1,0,0.2,0.1,0.2c0.1,0.1,0,0.1,0,0.1
			c-0.1,0-0.1,0.1-0.1,0.1c0,0,0,0.2-0.1,0.3c-0.1,0.1-0.2,0.4-0.2,0.6c-0.2,0.5-0.5,0.9-1.2,1.6c-1,1-1.5,1.6-1.3,1.6
			c0.1,0,0.1,0.2,0,0.2c-0.1,0-0.1,0,0,0.2c0.1,0.2,0.1,0.3,0,0.4c-0.1,0.1,0,0.3,0.1,0.4c0.1,0,0.1,0.1,0.1,0.5l0,0.5l-0.2,0.2
			c-0.1,0.1-0.3,0.3-0.5,0.3c-0.2,0.1-0.3,0.1-0.3,0.2c0,0-0.2,0.1-0.3,0.2c-0.2,0.1-0.3,0.2-0.2,0.3c0.1,0.1,0,0.4-0.1,0.5
			c0,0-0.2,0.1-0.3,0.1c-0.2,0.1-0.3,0.1-0.4,0.3c-0.1,0.2-0.1,0.2-0.8,0.6c-0.5,0.2-0.8,0.3-1.7,0.3
			C33.9,159.1,33.5,159.1,33.4,159z M37.6,155.4c0-0.1-0.1,0.2-0.1,0.3c0,0.1,0,0.1,0.1-0.1C37.6,155.6,37.6,155.4,37.6,155.4z
			 M36.4,154.6c0,0,0-0.1-0.1-0.1c-0.1,0-0.1,0,0,0C36.4,154.7,36.4,154.7,36.4,154.6z M37.2,153.4c0.1,0,0.3-0.2,0.2-0.3
			c0-0.1-0.1-0.1-0.2-0.1c-0.1,0-0.2,0.1-0.2,0.1c0,0,0,0-0.1,0c0,0-0.1,0.1-0.1,0.2c0,0.1,0,0.2,0.1,0.2
			C37.1,153.5,37.1,153.5,37.2,153.4C37.1,153.4,37.2,153.4,37.2,153.4z M50.2,146.3C50.2,146.2,50.1,146.2,50.2,146.3
			c0,0.1,0,0.2,0,0.2c0,0,0,0,0,0C50.3,146.4,50.2,146.3,50.2,146.3z M50.2,146.1C50.2,146,50.1,146,50.2,146.1
			C50.1,146.2,50.1,146.2,50.2,146.1C50.1,146.2,50.2,146.2,50.2,146.1z M41.8,145.7C41.8,145.6,41.8,145.6,41.8,145.7
			c0.1,0.1,0.2,0,0.4-0.4c0.1-0.2,0.2-0.3,0.2-0.3c0,0,0.1,0,0.1-0.1c0,0-0.1,0-0.1,0.1c-0.2,0.2-0.5,0.2-0.8,0.1
			c-0.1,0-0.2-0.1-0.2-0.1c-0.1,0-0.5-0.3-0.5-0.4c0,0,0,0-0.1,0s0,0,0-0.1c0,0,0-0.1,0-0.1c0,0-0.1,0.1-0.1,0.1c0,0.1,0,0.1-0.1,0
			c0-0.1-0.1-0.1-0.1,0c0,0,0,0.1-0.1,0.1c0,0,0,0.1,0.1,0.1c0.1,0,0.1,0.1,0.1,0.2c0,0,0,0.1,0.1,0c0,0,0.1,0,0.2,0.1
			c0.1,0.1,0.1,0.2,0.2,0.2c0,0,0.1,0.1,0,0c0,0-0.1,0-0.1,0c0,0,0,0.1,0.1,0.1c0.1,0,0.1,0,0.1-0.1c0-0.1,0-0.1,0.1-0.1
			c0.1,0,0.1,0,0.2,0.2c0,0.1,0,0.2,0,0.2c0,0,0,0,0,0.1C41.6,146,41.8,145.8,41.8,145.7z M33.6,144.9c0-0.2,0.1-0.3,0.2-0.3
			c0.2-0.1,0.5-0.1,0.6,0c0.1,0.1,0.2,0.1,0.3,0.1c0.1,0,0.2,0.1,0.3,0.1c0,0,0.1,0.1,0.2,0.1c0.1,0,0.3,0.1,0.5,0.1
			c0.2,0,0.3,0,0.4-0.1c0.1-0.1,0.4-0.1,0.7-0.1c0.2,0,0.3,0,0.4-0.6c0.1-0.6,0.1-0.9-0.1-0.9c-0.1,0-0.1,0-0.2,0.1
			c-0.1,0.1-0.4,0.2-0.5,0.1c-0.1-0.1-0.3-0.2-0.3-0.1c0,0.2-0.3,0.2-0.4,0.1c-0.1-0.1-0.1-0.1-0.1,0c0,0.1-0.2,0.2-0.2,0.1
			c0,0-0.1-0.1-0.1-0.2c-0.1-0.1-0.1-0.1-0.1-0.2c0-0.1,0-0.1-0.1,0c-0.1,0-0.1,0-0.1-0.1c0,0,0-0.1,0.1-0.1c0,0,0.1,0,0.1,0
			s0-0.1-0.1-0.1c-0.1,0-0.1-0.1-0.1-0.2c0-0.1,0-0.3,0-0.3c0,0,0,0,0,0s0,0.1-0.1,0.1c0,0-0.1,0-0.1-0.1c0,0,0-0.1,0.1-0.1
			c0,0,0.1,0,0.1-0.1c0-0.1,0-0.1-0.1,0c-0.1,0.1-0.2,0.1-0.3,0.2l-0.2,0l0.1,0.1c0.1,0.1,0.2,0.1,0.2,0.1c0,0,0,0,0,0
			c0,0,0.1,0.2,0.2,0.3c0.2,0.2,0.2,0.2,0.1,0.3c0,0-0.1,0.1-0.1,0.1c0,0,0,0.1,0,0.1c0,0-0.1,0-0.1-0.1c0,0-0.1-0.1-0.1,0
			c-0.1,0-0.1,0-0.1-0.1c0-0.1-0.2-0.2-0.2-0.1c0,0,0,0.1,0,0.2c0,0.1,0,0.1-0.1,0.1c0,0-0.1,0-0.1,0c0,0-0.1-0.1-0.2-0.1
			c-0.1,0-0.2-0.1-0.2-0.2c0-0.1,0-0.1-0.1-0.1c-0.1,0-0.2-0.1-0.1-0.2c0.1,0,0.1,0,0,0c0,0-0.1,0-0.1-0.1c0-0.1,0-0.1-0.1-0.1
			c-0.1-0.1-0.2-0.4-0.2-0.6c0-0.1,0-0.2-0.1-0.3c-0.1-0.1-0.2-0.2-0.3-0.2c-0.1,0-0.2-0.1-0.2-0.1c0,0-0.1-0.1-0.1-0.2
			c-0.2-0.2-0.3-0.3-0.3-0.4c0-0.1-0.1-0.1-0.2,0c0,0.1,0,0.2,0.1,0.3c0.1,0.1,0.1,0.2,0.1,0.2c0,0.1,0.2,0.4,0.3,0.4
			c0.1,0,0.1,0,0.1,0.1c0,0,0.1,0.1,0.2,0.2c0.2,0.2,0.3,0.2,0.2,0.4c0,0.1-0.1,0.1-0.2,0c-0.1-0.1-0.1-0.1-0.2-0.1c0,0,0,0.1,0,0.1
			c0,0,0.1,0.1,0.1,0.1c0,0.1-0.3,0.4-0.4,0.4c-0.1,0-0.1,0-0.1,0.2c0,0.2-0.1,0.2-0.2,0.1c0,0-0.1-0.1-0.1-0.1
			c-0.1,0-0.3-0.2-0.3-0.3c0-0.1,0.3-0.2,0.3-0.1c0.1,0.1,0.4,0,0.5-0.1c0.1-0.1,0-0.3-0.1-0.4c-0.3-0.3-0.4-0.4-0.4-0.4
			c0,0-0.1-0.1-0.2-0.2c-0.1-0.1-0.2-0.2-0.2-0.2s-0.1,0-0.1-0.1c0,0,0-0.1,0.1-0.1c0.1,0,0-0.2-0.1-0.3c-0.1,0-0.1,0-0.2,0
			c-0.3,0.2-0.4,0.2-0.4,0.2c0,0-0.1,0-0.2-0.1c-0.2-0.1-0.3-0.1-0.3,0.1c0,0.2-0.1,0.2-0.3,0.3c-0.3,0.1-0.6,0.4-0.5,0.5
			c0,0.1-0.3,0.4-0.3,0.4c0,0-0.1,0-0.1,0.1c-0.1,0.1-0.2,0.1-0.4,0c-0.2-0.1-0.4,0-0.4,0.1c0,0.1,0.1,0.2,0.2,0.2
			c0.1,0,0.2,0,0.2,0.1c0,0,0.1,0,0.2,0c0.6-0.2,0.7-0.2,1.7-0.1c0.2,0,0.4,0,0.6,0c0.2,0,0.3,0,0.3,0.1c0,0,0.1,0.1,0.1,0
			c0.1,0,0.1,0,0.1,0.1c0,0.1,0,0.1-0.1,0.1c-0.1,0-0.1,0.1,0,0.1c0.2,0.3,0.2,0.3,0.1,0.4c0,0-0.1,0-0.2,0c0,0-0.1,0-0.1,0.1
			c0,0,0,0.1,0,0c0,0,0.1,0.1,0.2,0.2c0.1,0.1,0.2,0.2,0.3,0.2c0.2,0,0.6,0.2,0.6,0.3c0,0.1,0.1,0.1,0.1,0.2c0.1,0,0.3,0.1,0.4,0.2
			C33.5,145.2,33.6,145.2,33.6,144.9z M34.7,143.9c-0.1,0-0.1-0.1-0.1-0.1c0-0.1,0-0.1,0.4,0C35.4,143.9,35.2,144,34.7,143.9z
			 M36.6,143.9c0-0.1,0.1-0.2,0.2-0.2c0,0,0.1,0,0.2-0.1c0.1-0.1,0.2-0.1,0.1,0.1c0,0,0,0.1,0,0.1c0,0,0,0-0.1,0.1
			C36.8,143.9,36.6,144,36.6,143.9z M35.3,143.8C35.3,143.6,35.4,143.6,35.3,143.8C35.4,143.8,35.4,143.8,35.3,143.8
			C35.3,143.8,35.3,143.8,35.3,143.8z M32.4,143.6C32.4,143.5,32.5,143.5,32.4,143.6C32.5,143.6,32.5,143.6,32.4,143.6
			C32.5,143.6,32.4,143.6,32.4,143.6z M31.3,142.6C31.3,142.5,31.3,142.5,31.3,142.6c0-0.1,0-0.3,0-0.4c0-0.2,0-0.2,0.1-0.2
			c0.1,0,0.1,0,0.1-0.2c0-0.2,0-0.2,0.1-0.3c0.1-0.1,0.1,0,0.1,0.1c0,0.1,0,0.2,0,0.2c0,0.1,0,0.2,0,0.2c0,0.1,0,0.4-0.1,0.5
			C31.5,142.6,31.3,142.6,31.3,142.6z M30.1,142.2c0-0.1,0-0.2,0.1-0.2c0,0,0.1,0,0.1,0.1C30.3,142.3,30.2,142.3,30.1,142.2z
			 M30.4,142.1C30.4,142.1,30.4,142.1,30.4,142.1C30.5,142.1,30.5,142.1,30.4,142.1C30.4,142.2,30.4,142.2,30.4,142.1z M34.8,143.2
			C34.8,143.1,34.8,143.1,34.8,143.2c-0.1,0.1,0,0.2,0,0.1C34.9,143.3,34.9,143.2,34.8,143.2z M40.8,142.4c0.1-0.1,0.1-0.1,0-0.2
			c0-0.1-0.1-0.2-0.1-0.2c0,0,0,0,0-0.1c0,0,0-0.2-0.1-0.3c-0.1-0.1-0.1-0.2-0.1-0.3c0,0,0-0.1-0.1-0.1c0,0-0.1-0.1-0.1-0.2
			c0-0.1,0-0.1-0.1-0.1c-0.1,0-0.2-0.1-0.2-0.1c-0.1-0.1-0.2-0.1-0.2-0.1c0,0-0.1-0.1-0.1-0.1c-0.1-0.2-0.3-0.2-0.3-0.1
			c0,0.1-0.1,0.1,0,0.2c0,0.1,0.1,0.2,0.1,0.3c0,0.1,0,0.2,0.1,0.2c0.1,0.1,0.6,0.5,0.7,0.5c0,0,0.1,0,0.1,0.1s0,0.1-0.1,0.1
			c-0.1,0-0.1,0.1-0.1,0.3c0,0.3,0,0.3,0.2,0.3c0.1,0,0.2,0,0.2,0.1C40.5,142.5,40.7,142.5,40.8,142.4z M35.6,142.3
			C35.6,142.3,35.6,142.2,35.6,142.3c-0.1-0.1-0.2,0-0.1,0C35.6,142.3,35.6,142.3,35.6,142.3z M36.3,141.9c0.2-0.1,0.7-0.2,0.7-0.1
			c0,0,0,0,0.1,0c0,0,0.1,0,0.1,0c0,0,0.2,0.1,0.4,0.1c0.3,0,0.4,0,0.5-0.1c0.2-0.2,0.1-0.3-0.2-0.4c-0.1-0.1-0.3-0.2-0.5-0.3
			c-0.3-0.2-0.4-0.2-0.7,0c-0.2,0.1-0.3,0.1-0.3,0c0,0,0-0.1-0.1-0.1c-0.1,0-0.1-0.1-0.1-0.1c0-0.1,0-0.1-0.1-0.1
			c-0.1,0-0.1,0-0.1-0.1c0-0.1-0.2,0.2-0.2,0.3c0,0.1-0.1,0.1-0.1,0.2c-0.1,0.1-0.1,0.2-0.1,0.2c0,0.1,0,0.1,0,0.1
			c-0.1,0-0.1,0.2,0,0.4C35.7,142.1,36.1,142.1,36.3,141.9z M37.3,140.7c0,0,0-0.1,0-0.1c-0.1-0.1-0.3,0-0.3,0.1
			C36.9,140.8,37.2,140.8,37.3,140.7z M33.4,138.5c0.1-0.1,0.3-0.1,0.4,0c0,0,0.1,0,0.1,0c0,0,0.1-0.1,0.1-0.1
			c0.1,0,0.1-0.1,0.1-0.3c0-0.1,0.1-0.4,0.1-0.5c0.1-0.2,0.1-0.3,0.3-0.3c0.1,0,0.1,0-0.2-0.1c-0.2,0-0.3,0-0.3,0
			c0,0.1-0.1,0.2-0.3,0.2c-0.1,0-0.2,0.2-0.1,0.3c0,0.1-0.1,0.3-0.2,0.3c0,0-0.1,0-0.2,0c-0.1,0-0.2,0.1-0.1,0.1
			c0.1,0,0.1,0.1,0,0.1c0,0-0.1,0-0.1-0.1c0,0-0.1-0.1-0.1-0.1s-0.1,0-0.1,0.1c0,0,0,0.1,0.1,0.1c0,0,0.1,0,0.1,0.1
			C33,138.6,33.2,138.6,33.4,138.5z M33.7,137.8c0-0.1,0-0.1,0.1-0.2c0.1-0.1,0.1,0,0,0.1C33.7,137.9,33.7,137.9,33.7,137.8z
			 M32.7,137.9c0.1,0,0.1-0.1,0-0.2c0-0.1-0.1-0.1,0,0C32.7,137.8,32.7,137.9,32.7,137.9C32.6,138,32.6,138,32.7,137.9z M34.7,137.8
			c0-0.1-0.1-0.3-0.2-0.2c-0.1,0-0.1,0.1,0,0.2C34.6,137.9,34.6,137.9,34.7,137.8z M36.8,137.4c0-0.1-0.1-0.1-0.1-0.1
			C36.6,137.3,36.7,137.4,36.8,137.4C36.7,137.4,36.8,137.4,36.8,137.4z M35.2,137.1C35.2,137,35.2,137,35.2,137.1
			C35.1,137.2,35.1,137.2,35.2,137.1C35.1,137.2,35.2,137.2,35.2,137.1z M34.2,136.9c0-0.1,0-0.6,0-0.6c0,0-0.1,0.1-0.2,0.1
			c-0.2,0.2-0.3,0.4-0.1,0.5C33.9,137,34.1,137,34.2,136.9z M35.8,136.9c0-0.1-0.2-0.2-0.2-0.2c-0.1,0,0,0.1,0,0.2
			C35.7,137,35.8,137,35.8,136.9z M34.5,136c0.2-0.2,0.2-0.3,0.1-0.3c-0.1,0-0.3,0.1-0.3,0.2c0,0,0,0.1,0,0.1
			C34.2,136.2,34.3,136.2,34.5,136z M36.2,135.9c0,0-0.1-0.1-0.1,0c-0.1,0-0.1,0,0,0C36.2,136,36.2,136,36.2,135.9z M36.4,135.6
			c0-0.1,0-0.1-0.3-0.1c-0.2,0-0.3,0-0.3,0.1c0,0.1,0.1,0.1,0.3,0.1C36.4,135.7,36.4,135.7,36.4,135.6z M46.9,134.6c0,0,0-0.1,0-0.1
			C46.8,134.5,46.8,134.5,46.9,134.6C46.8,134.7,46.9,134.7,46.9,134.6z M38.3,133.1C38.3,133,38.3,133,38.3,133.1
			C38.3,133.1,38.3,133.2,38.3,133.1C38.4,133.1,38.4,133.1,38.3,133.1z M44.6,131.6C44.6,131.5,44.5,131.5,44.6,131.6
			c-0.2-0.2-0.2-0.2-0.1-0.1C44.5,131.6,44.6,131.6,44.6,131.6z M40.7,129.4c0,0-0.7-0.2-0.7-0.2c0,0,0,0,0.4,0.2
			C40.6,129.4,40.7,129.4,40.7,129.4z M39.6,157.4c0,0,0-0.1,0-0.3c0-0.2,0-0.2,0.2-0.4c0.1-0.1,0.2-0.2,0.1-0.4
			c0-0.2,0.1-0.5,0.2-0.5c0.1,0,0.6-0.2,0.7-0.4c0.6-0.7,0.6-0.7,0.7-0.6c0.1,0.1,0.1,0.5,0.1,0.6c0,0-0.1,0-0.1,0c0,0,0,0,0,0.1
			c0,0.1,0,0.1-0.1,0.1c0,0-0.1,0-0.1,0.1c0,0.1-0.4,0.6-0.7,1.1c-0.2,0.2-0.3,0.3-0.5,0.4C39.9,157.4,39.7,157.4,39.6,157.4z
			 M42.5,156C42.5,156,42.5,156,42.5,156C42.6,156,42.6,156,42.5,156C42.5,156.1,42.5,156.1,42.5,156z M29.8,152.7
			C29.8,152.7,29.8,152.7,29.8,152.7C29.9,152.7,29.9,152.7,29.8,152.7C29.8,152.8,29.8,152.8,29.8,152.7z M20.8,152.2
			c-0.6-0.9-1.3-2.6-1.7-3.8c-0.6-2-0.8-4.2-0.6-6.1c0.1-0.8,0.2-0.8,0.2-0.1c0,1.3,0,1.8,0,1.9c0,0,0.1,0.2,0.1,0.4
			c0,0.2,0.1,0.4,0.1,0.5c0,0.1,0,0.2,0,0.3c0,0.1,0,0.4,0.1,0.6c0,0.2,0.1,0.4,0.1,0.6c0.1,0.5,0.5,1.5,0.8,1.9
			c0.1,0.1,0.3,0.4,0.4,0.7c0.1,0.3,0.3,0.5,0.3,0.5c0.1,0,0.1,0.1,0.2,0.5c0.1,0.4,0.1,0.5-0.1,0.8l-0.2,0.2l0.1,0.4
			c0.2,0.5,0.3,1,0.3,1C21,152.6,20.9,152.4,20.8,152.2z M42.4,148.9c0.1-0.1,0.2-0.1,0.2,0C42.6,148.9,42.5,148.9,42.4,148.9
			C42.4,148.9,42.4,148.9,42.4,148.9z M39.3,148.5c0-0.1,0.1-0.1,0.1,0C39.5,148.6,39.5,148.6,39.3,148.5
			C39.4,148.6,39.3,148.6,39.3,148.5z M23.1,146.6C23.1,146.5,23.1,146.5,23.1,146.6c0-0.1,0.1-0.1,0.1,0
			C23.2,146.6,23.1,146.6,23.1,146.6z M23.3,146.3C23.3,146.3,23.3,146.3,23.3,146.3C23.4,146.4,23.4,146.4,23.3,146.3
			C23.3,146.4,23.3,146.4,23.3,146.3z M23,146c-0.1-0.1-0.1-0.2,0-0.2c0,0,0.1,0,0.1,0.1s0,0.1,0.1,0.2c0,0.1,0.1,0.1,0,0.1
			C23.1,146.1,23,146.1,23,146z M49.3,144.4c0,0,0-0.1,0-0.2l0-0.1l0.1,0.1C49.4,144.3,49.3,144.5,49.3,144.4z M25.5,144.1
			C25.5,144.1,25.5,144,25.5,144.1C25.5,144,25.6,144,25.5,144.1C25.5,144.2,25.5,144.2,25.5,144.1z M25.9,144
			c0.1-0.1,0.2-0.1,0.2-0.1c0,0-0.2,0.3-0.2,0.3C25.8,144.2,25.8,144.1,25.9,144z M25.3,143.9C25.3,143.9,25.3,143.8,25.3,143.9
			c0.1-0.1,0.2,0,0.1,0C25.4,144,25.3,144,25.3,143.9z M25.7,142.7C25.7,142.6,25.7,142.6,25.7,142.7
			C25.8,142.7,25.8,142.7,25.7,142.7C25.7,142.7,25.7,142.7,25.7,142.7z M24.9,140.6C24.9,140.6,24.9,140.6,24.9,140.6
			C25,140.7,25,140.7,24.9,140.6C24.9,140.7,24.9,140.7,24.9,140.6z M24.6,140.2C24.5,140.1,24.6,140.1,24.6,140.2
			C24.7,140.2,24.7,140.2,24.6,140.2C24.6,140.2,24.6,140.2,24.6,140.2z M19.3,139.7C19.3,139.6,19.3,139.6,19.3,139.7
			C19.3,139.7,19.3,139.7,19.3,139.7C19.3,139.8,19.3,139.8,19.3,139.7z M19.3,139.2c0-0.1,0.1-0.6,0.1-0.6
			C19.5,138.6,19.4,138.9,19.3,139.2C19.3,139.3,19.3,139.3,19.3,139.2z M19.9,137.3C19.9,137.3,19.9,137.3,19.9,137.3
			c0.1-0.1,0.1,0,0.1,0C20,137.3,20,137.4,19.9,137.3C19.9,137.4,19.9,137.3,19.9,137.3z M20.1,137c0-0.1,0.2-0.4,0.2-0.3
			C20.3,136.7,20.1,137,20.1,137C20.1,137,20.1,137,20.1,137z M31.1,136.7c0-0.1,0-0.1,0.1-0.1C31.3,136.5,31.3,136.5,31.1,136.7
			C31.2,136.7,31.1,136.7,31.1,136.7z M20.3,136.6C20.3,136.5,20.3,136.5,20.3,136.6c0.1-0.1,0.1-0.1,0.1-0.1
			C20.4,136.5,20.4,136.6,20.3,136.6C20.3,136.6,20.3,136.6,20.3,136.6z M30.7,136c0-0.1,0-0.1,0.1-0.1
			C30.8,135.9,30.8,135.9,30.7,136C30.7,136.2,30.7,136.2,30.7,136z M23.8,135.7c0,0,0-0.1,0.1-0.1c0,0,0-0.1,0-0.1
			c0,0-0.1,0-0.1-0.1c0-0.1,0-0.1,0.1,0c0.1,0,0.1,0,0-0.4c0-0.1,0-0.1,0.1-0.1c0.1,0,0.1,0,0.1-0.1c0,0,0,0,0.1,0
			c0.2,0,0.5-0.2,0.5-0.3c0,0-0.1-0.1-0.1-0.1c-0.1,0-0.2-0.1-0.2-0.2c0,0,0-0.1,0-0.1c0,0-0.1,0-0.1,0.1c0,0.1,0,0.1-0.1,0.2
			c-0.1,0.2-0.1,0,0-0.2c0.1-0.2,0.1-0.3-0.1-0.4c-0.3-0.1-0.3,0-0.1,0.1c0.1,0.1,0.1,0.1,0.1,0.3c-0.1,0.1-0.1,0.1-0.2,0.1
			c0,0-0.1,0-0.1,0s0,0.1-0.1,0.1c-0.1,0-0.1,0-0.1,0.1c0,0.1-0.1,0.4-0.1,0.4c0,0-0.1,0,0,0c0,0,0.1,0,0.2,0c0.1,0,0.1,0,0.1,0.1
			c-0.1,0-0.1,0.1-0.1,0.1c0,0.1-0.3,0-0.4-0.1c0,0-0.1-0.1-0.2-0.1c-0.1,0-0.1,0,0-0.1c0-0.1,0.1-0.1,0.2-0.1c0.1,0,0.1,0,0.1-0.1
			c0,0,0,0,0,0c0,0-0.1,0-0.1-0.1c0-0.1-0.1-0.1-0.1-0.1c-0.1,0-0.3,0.2-0.3,0.3c0,0,0,0.1-0.1,0.1c-0.1,0-0.1,0,0-0.1
			c0,0,0-0.1,0-0.1c0,0-0.1,0-0.1-0.1c0-0.1,0-0.1-0.1,0c-0.1,0-0.1,0.1-0.2,0.1c0,0-0.2,0.1-0.3,0.2c-0.2,0.2-0.3,0.2-0.4,0.2
			c-0.1,0-0.2,0-0.3,0.1l-0.1,0.2l0.1-0.2c0.1-0.1,0.3-0.4,0.6-0.8c2.4-3.2,5.8-5.4,9.7-6.2c1.5-0.3,3.3-0.4,4.2-0.3
			c0.3,0,0.4,0.1,0.3,0.1c-0.1,0-0.1,0.1-0.2,0.1c0,0-0.1,0.1-0.2,0.1c-0.2,0-0.3,0.1-0.1,0.1c0.1,0,0.1,0,0,0c-0.1,0-0.1,0-0.2,0.1
			c0,0-0.4,0.1-1.1,0.1c-1.3,0-1.4,0-1.8,0.2c-0.2,0.1-0.4,0.1-0.6,0.2c-0.2,0-0.3,0.1-0.4,0.1c-0.1,0-0.2,0.1-0.3,0.1
			c-0.1,0-0.1,0-0.1,0.1c0,0,0.1,0,0.1,0c0,0,0.1,0,0.2,0c0.1,0,0.2,0,0.2,0c0,0,0,0,0,0c0,0,0,0,0,0c0.1-0.1,0.4-0.1,0.6,0
			c0.1,0.1,0.1,0.1,0,0.1c-0.1,0.1-0.5,0.1-0.8,0.2c-0.1,0-0.2,0.1-0.2,0.2c0,0.1-0.1,0.1-0.4,0.1c-0.4,0-0.9,0.1-0.9,0.2
			c0,0.1,0.3,0.1,0.4,0c0.2-0.2,0.8-0.2,0.7,0c0,0.1,0.1,0.2,0.2,0.1c0,0,0.1-0.1,0.1-0.1c0.1,0,0.1,0,0.1-0.1c0-0.1,0-0.1,0.1-0.1
			c0,0,0.1,0,0.2,0c0.1,0,0.1,0,0,0.1c-0.1,0.1-0.1,0.2,0.2,0.2c0.1,0,0.2,0,0.2,0s0,0.1,0.2,0.1c0.2,0,0.3,0,0.3,0.1
			c0,0,0.1,0.1,0.1,0.1c0.1,0,0.1,0.1,0.1,0.1c0,0,0,0.1,0.1,0.1c0.1,0.1,0.1,0.1,0,0.2c0,0.1-0.1,0.2-0.2,0.2l-0.1,0l0.1,0.1
			c0.1,0.1,0.2,0.1,0.2,0.1c0.1,0,0.2,0,0.3,0.1c0.1,0.1,0.2,0.1,0.1,0.2c0,0.1-0.1,0.2-0.1,0.2c-0.1,0-0.1,0,0,0c0,0,0.1,0,0,0.1
			c0,0,0,0.1,0.1,0.1c0,0,0.1,0,0.1,0.1c0,0,0,0.1-0.1,0.1c-0.1,0-0.6,0.2-0.6,0.3c0,0-0.1,0-0.1,0c-0.1,0-0.1,0-0.1,0
			c0,0,0.1,0.1,0,0.1c0,0.1-0.1,0.1-0.1,0.1c0,0-0.1,0-0.1,0.1c0,0-0.1,0.1-0.2,0.1c-0.1,0-0.2,0.1-0.2,0.2c0,0.1-0.1,0.1-0.3,0.1
			c0,0-0.1,0-0.1,0.1c0,0-0.1,0.1-0.1,0.1c-0.1,0-0.5,0.4-0.5,0.5c0,0-0.1,0-0.1,0c-0.1,0-0.1,0-0.1,0c0,0-0.4,0.2-0.5,0.1
			c-0.5-0.1-0.6-0.1-1.1,0c-0.2,0-0.3,0-0.4,0c-0.1,0-0.1,0-0.3,0c-0.1,0-0.2,0.1-0.2,0.1c0,0-0.1,0.1-0.2,0.1
			c-0.1,0-0.3,0.1-0.5,0.2c-0.4,0.2-0.5,0.2-0.5,0.1c0-0.1,0-0.2,0.1-0.3c0-0.2,0.2-0.4,0.7-0.9c0.5-0.4,1.1-0.8,1.1-0.6
			c0,0,0.1,0,0.1,0c0.1,0,0.1,0,0-0.1c-0.1-0.1-0.1-0.1,0-0.2c0.1,0,0.2-0.1,0.3-0.1c0.1,0,0.2,0,0.2-0.1c0-0.1,0.2-0.2,0.5-0.3
			c0.5-0.2,0.7-0.4,0.7-0.6c0-0.1,0-0.1,0.2-0.2c0.1-0.1,0.2-0.1,0.3-0.1c0,0,0.1,0,0.1,0c0.1,0,0.2,0,0.3,0.1
			c0.2,0.1,0.2,0.1,0.2,0c0.1-0.2-0.3-0.3-1.2-0.3c-0.2,0-0.2-0.1,0-0.3c0.1-0.1,0.1-0.2,0.1-0.2c0,0-0.1,0-0.1,0.1c0,0-0.1,0-0.2,0
			c-0.1-0.1-0.2-0.1-0.5,0c-0.2,0-0.4,0.1-0.5,0.2c-0.1,0.1-0.2,0.1-0.3,0.1c-0.1,0-0.1,0-0.1,0.1c0.1,0.1,0.2,0.1,0.4-0.1
			c0.2-0.1,0.8-0.2,0.9-0.1c0.1,0.1-0.2,0.5-0.5,0.6c-0.2,0.1-0.3,0.2-0.3,0.2c0,0-0.1,0.1-0.1,0.1c0,0-0.1,0-0.1,0.1
			c0,0.1-0.4,0.3-0.6,0.3c0,0-0.1,0.1-0.2,0.2c-0.3,0.4-0.4,0.4-0.6,0.4l-0.2,0l0.2-0.2c0.1-0.1,0.2-0.2,0.2-0.2
			c0-0.1-0.2,0.1-0.4,0.3c-0.1,0.1-0.3,0.2-0.4,0.2c-0.1,0-0.2,0-0.1,0c0.1-0.1,0.1-0.2,0-0.1c-0.2,0.1-0.2,0.1-0.1-0.1
			c0.1-0.1,0.2-0.3,0.3-0.4c0.1-0.1,0.2-0.3,0.3-0.3c0-0.1,0.1-0.2,0.2-0.2c0.2-0.1,0.2-0.1,0.2,0c0,0.1,0.2,0.2,0.2,0.1
			c0-0.1,0-0.1,0,0c0,0,0,0.1,0.1,0.1c0,0,0,0,0-0.1c0-0.1,0-0.1,0.1-0.2c0.1,0,0.2-0.1,0.2-0.1c0,0,0.1-0.1,0.2-0.1
			c0.1,0,0.1,0,0.1,0c0,0-0.1,0-0.2,0c-0.1,0-0.3,0-0.4,0c-0.2,0-0.3,0-0.5,0.1c-0.1,0.1-0.3,0.2-0.3,0.1c0,0,0-0.1,0.1-0.1
			c0.1,0,0.1-0.1,0-0.1c-0.1-0.1,0.1-0.2,0.2-0.2c0.1,0,0.2,0,0.1-0.1c0,0-0.1-0.1-0.1-0.1c0,0-0.1,0-0.1-0.1
			c-0.1-0.1-0.4-0.1-0.5,0c-0.1,0-0.2,0.1-0.3,0.2c-0.1,0-0.3,0.2-0.4,0.3c-0.1,0.1-0.3,0.3-0.5,0.4c-0.1,0.1-0.3,0.2-0.3,0.3
			c0,0.1-0.1,0.2-0.2,0.2c-0.1,0-0.2,0.1-0.3,0.2c-0.1,0.1-0.2,0.2-0.3,0.2c-0.1,0.1-0.1,0.1-0.1,0.1c0,0,0.1,0,0.1,0
			c0,0,0-0.1,0.1-0.1c0,0,0.1-0.1,0.3-0.1c0.1-0.1,0.2-0.1,0.2-0.1c0,0.1,0.6,0,0.8-0.3c0.1-0.1,0.1-0.1,0.2-0.1c0.1,0,0.2,0,0.2,0
			c0.1-0.1,0.5-0.2,0.5-0.2c0,0,0,0.1,0,0.1c0,0.1-0.1,0.1-0.1,0.2c0,0-0.1,0.1-0.2,0.2c-0.1,0.1-0.2,0.2-0.2,0.2
			c0,0-0.1,0.1-0.2,0.1c-0.2,0.1-0.4,0.3-0.4,0.4c0,0,0.1,0,0.3,0c0.2,0,0.2,0,0.2,0c-0.1,0.1-0.5,0.4-0.9,0.8
			c-0.1,0.1-0.2,0.3-0.3,0.4c0,0.1-0.1,0.2-0.1,0.2c0,0-0.1,0-0.1,0.1c-0.1,0.2-0.4,0.5-0.5,0.4c0,0-0.1,0,0,0c0,0.1,0,0.1-0.1,0.1
			c-0.1,0-0.2,0.1-0.2,0.1c0,0,0,0.1-0.1,0.1c0,0,0,0,0,0.1c0.1,0.1,0,0.2-0.1,0.4c-0.1,0.1-0.1,0.1-0.1,0.1s0,0.1-0.1,0.1
			C23.8,135.8,23.8,135.8,23.8,135.7z M23.2,133.4c0-0.1,0-0.1,0-0.1c0,0-0.1,0.1-0.1,0.2c0,0.1,0,0.1,0,0.1
			C23.1,133.6,23.2,133.5,23.2,133.4z M23,133.3c0-0.1,0-0.1,0-0.1c-0.1,0-0.1,0.2,0,0.2C23,133.5,23,133.4,23,133.3z M23.6,132.8
			c0.1-0.1,0-0.1-0.1,0c-0.1,0.1-0.1,0.1,0,0.1C23.5,132.9,23.6,132.9,23.6,132.8z M23.9,132.3c0-0.1,0-0.1-0.1,0
			c-0.1,0-0.1,0.1,0,0.1C23.9,132.4,23.9,132.4,23.9,132.3z M24.5,132c0.1-0.1,0.1-0.2,0.1-0.2c0,0,0,0,0,0c0,0,0.1,0,0,0
			c0-0.1-0.1-0.1-0.2,0c0,0-0.1,0.2-0.2,0.2c-0.1,0.1-0.1,0.2-0.1,0.2C24.1,132.3,24.2,132.3,24.5,132z M29.2,130.8
			C29.2,130.8,29.1,130.8,29.2,130.8c-0.1-0.1-0.1,0-0.1,0C29.1,130.9,29.1,130.9,29.2,130.8C29.2,130.9,29.2,130.9,29.2,130.8z
			 M31.4,130.2C31.5,130.2,31.5,130.2,31.4,130.2c-0.1,0.1-0.1,0.1,0,0.1c0,0,0.1,0,0.2-0.1c0-0.1,0-0.1,0-0.1c-0.1,0-0.3,0-0.3,0.1
			c0,0.1,0,0.1,0,0C31.3,130.2,31.4,130.2,31.4,130.2z M29.8,129.7c0,0,0.1,0,0.1-0.1c0-0.1,0-0.1-0.2,0c-0.1,0.1-0.2,0.1-0.1,0.2
			c0,0,0.1,0,0.1,0C29.7,129.7,29.8,129.7,29.8,129.7z M30.4,129.2C30.4,129.2,30.4,129.2,30.4,129.2c0-0.1-0.1,0-0.1,0
			C30.3,129.3,30.3,129.3,30.4,129.2C30.4,129.3,30.4,129.3,30.4,129.2z M30.9,128.8C30.9,128.8,30.8,128.7,30.9,128.8
			c-0.1-0.1-0.2,0-0.2,0C30.7,128.8,30.8,128.8,30.9,128.8C30.8,128.8,30.9,128.8,30.9,128.8z M29.6,135.1c0,0,0-0.1-0.1-0.1
			c-0.1,0-0.1-0.1,0-0.1c0,0,0.1,0,0.1-0.1c0,0,0-0.1-0.1-0.1c0,0,0,0,0-0.1c0,0,0.1,0,0.1,0c0.1,0,0.1,0,0.1-0.1
			c0-0.1,0-0.2,0.2-0.2c0.1,0,0.1,0,0.1,0.1c0,0.1,0,0.1,0.1,0.1c0.1,0,0.2,0,0.3,0.1c0.2,0.1,0.2,0.1,0.2,0.2
			c0,0.2-0.2,0.3-0.6,0.3C29.7,135.2,29.6,135.1,29.6,135.1z M37,134.6c-0.1-0.1,0-0.2,0.1-0.2c0.1,0,0.1,0,0.1,0.1
			C37.1,134.7,37,134.7,37,134.6z M34,133.1c0-0.1-0.1-0.2-0.1-0.2c0,0,0-0.1-0.1-0.1c-0.1,0-0.1-0.2,0-0.3c0,0,0.1-0.1,0.2,0
			c0.1,0,0.2,0,0.2,0c0,0,0.4,0,0.4,0c0.1,0.1-0.1,0.2-0.2,0.2c-0.1,0-0.1,0.1,0,0.2c0.1,0.1,0.1,0.2-0.1,0.2c-0.1,0-0.1,0-0.1-0.1
			c0-0.2-0.1-0.1-0.2,0.1C34.1,133.3,34.1,133.3,34,133.1z M26.8,132.4C26.9,132.4,26.9,132.4,26.8,132.4
			C27,132.4,26.9,132.4,26.8,132.4C26.8,132.5,26.8,132.5,26.8,132.4z M37.9,132.4C37.8,132.2,37.9,132.2,37.9,132.4
			c0.1,0,0.1,0.1,0.1,0.1C38,132.4,38,132.4,37.9,132.4z M35.6,132.3c0,0,0-0.1,0-0.1c0.1-0.1,0.1-0.1,0.2,0c0,0,0,0.1,0,0.1
			c0,0,0,0,0,0c0,0,0.1-0.1,0.1-0.2c0-0.2,0-0.2,0.1-0.1c0.1,0,0.2,0,0.2,0c0,0,0,0,0.1,0c0,0,0,0.1,0,0.1s0,0,0,0.1
			c0,0,0,0.1,0,0.1c-0.1,0,0,0,0,0.1c0.1,0,0.1,0.1,0,0.1c-0.1,0-0.1,0-0.1-0.1c0,0,0,0,0,0C36,132.4,35.7,132.4,35.6,132.3z
			 M25.8,131.8c0,0,0.1-0.1,0.2-0.1c0.1,0,0.1,0,0,0C25.8,131.9,25.7,131.9,25.8,131.8z M27.1,131.3c0.1-0.1,0.2-0.1,0.1,0
			C27.2,131.3,27.2,131.3,27.1,131.3C27.1,131.3,27.1,131.3,27.1,131.3z M27.4,131C27.4,131,27.4,130.9,27.4,131
			c0.1-0.1,0.2,0,0.2,0S27.5,131,27.4,131C27.4,131,27.4,131,27.4,131z M32.2,130c0,0,0.1,0,0.1,0C32.3,130.1,32.3,130.1,32.2,130
			C32.2,130.1,32.2,130.1,32.2,130z M31.8,130C31.8,130,31.7,129.9,31.8,130c0-0.1,0.5-0.1,0.4-0.1C32.2,130,31.9,130,31.8,130z
			 M32.2,129.7c-0.1,0-0.1-0.1,0.1-0.1c0.1,0,0.1,0,0.1,0.1C32.3,129.7,32.3,129.8,32.2,129.7z M31.4,129.7c0,0,0.1-0.1,0.1-0.2
			c0.1-0.1,0.2-0.1,0.4-0.2c0.2,0,0.3,0,0.4-0.1c0.1,0,0.1,0,0.1,0c0,0.1-0.1,0.2-0.2,0.2c0,0-0.2,0-0.3,0c-0.2,0-0.2,0-0.1,0.1
			c0.1,0,0.1,0,0,0c-0.1,0-0.2,0-0.3,0C31.5,129.7,31.4,129.7,31.4,129.7z M36.5,128.7c0,0,0.1,0,0.2,0
			C36.8,128.7,36.7,128.7,36.5,128.7C36.5,128.7,36.5,128.7,36.5,128.7z"/>
	</g>
</g>
<g id="bar">
	<g id="XMLID_10_">
		<g id="binary">
			<rect id="XMLID_134_" x="99.5" y="205.3" class="st5" width="52.8" height="257.2"/>
			<text id="XMLID_133_" transform="matrix(1 0 0 1 100.6501 209.5811)" class="st0 st16 st17">010100010010</text>
		</g>
		<linearGradient id="XMLID_14_" gradientUnits="userSpaceOnUse" x1="125.8544" y1="501" x2="125.8544" y2="205.29">
			<stop  offset="9.950249e-002" style="stop-color:#35B44A"/>
			<stop  offset="0.1642" style="stop-color:#35B44A"/>
			<stop  offset="0.3284" style="stop-color:#35B44A;stop-opacity:0.4806"/>
			<stop  offset="0.7164" style="stop-color:#35B44A;stop-opacity:0.1"/>
			<stop  offset="1" style="stop-color:#35B44A;stop-opacity:0.1"/>
		</linearGradient>
		<polygon id="XMLID_45_" class="st18" points="99.5,205.3 99.5,475.7 123.3,501 128.5,501 152.3,475.7 152.3,205.3 		"/>
	</g>
	<rect id="XMLID_20_" x="110.5" y="475.7" class="st19" width="28.7" height="119.6"/>
	<rect id="XMLID_130_" x="115.9" y="462.4" class="st5" width="18" height="129.7"/>
	<text id="country-name" transform="matrix(8.979319e-011 -1 1 8.979319e-011 133.1165 586.4775)" class="st20 st6 st21">Switzerland</text>
</g>
</svg>
